<?xml version="1.0" encoding="UTF-8"?>
<svg xmlns="http://www.w3.org/2000/svg" xmlns:xlink="http://www.w3.org/1999/xlink" viewBox="0 0 300.65 61.46">
  <defs>
    <style>
      .cls-1 {
        fill: #ff8b6f;
        mix-blend-mode: multiply;
        opacity: .29;
      }

      .cls-1, .cls-2, .cls-3, .cls-4, .cls-5 {
        stroke-width: 0px;
      }

      .cls-2 {
        fill: url(#linear-gradient);
      }

      .cls-3 {
        fill: #000;
      }

      .cls-4 {
        fill: url(#linear-gradient-2);
      }

      .cls-5 {
        fill: url(#linear-gradient-3);
      }

      .cls-6 {
        isolation: isolate;
      }
    </style>
    <linearGradient id="linear-gradient" x1="18.75" y1="25.21" x2="55.4" y2="25.21" gradientUnits="userSpaceOnUse">
      <stop offset="0" stop-color="#4f6cfd"/>
      <stop offset="1" stop-color="#21d7fa"/>
    </linearGradient>
    <linearGradient id="linear-gradient-2" x1="0" y1="31.26" x2="37.06" y2="31.26" gradientUnits="userSpaceOnUse">
      <stop offset="0" stop-color="#5041f8"/>
      <stop offset=".02" stop-color="#5341f8"/>
      <stop offset=".3" stop-color="#7747f9"/>
      <stop offset=".56" stop-color="#904bfa"/>
      <stop offset=".79" stop-color="#a04efa"/>
      <stop offset=".97" stop-color="#a64ffb"/>
    </linearGradient>
    <linearGradient id="linear-gradient-3" x1="12.48" y1="27.96" x2="53.7" y2="27.96" gradientUnits="userSpaceOnUse">
      <stop offset="0" stop-color="#fe4e62"/>
      <stop offset="1" stop-color="#fea762"/>
    </linearGradient>
  </defs>
  <g class="cls-6">
    <g id="Layer_2" data-name="Layer 2">
      <g id="Layer_1-2" data-name="Layer 1">
        <path class="cls-3" d="M74.69,43.79c-1.81,0-3.46-.3-4.94-.88-1.48-.59-2.74-1.45-3.78-2.57-1.04-1.12-1.84-2.48-2.42-4.08-.58-1.6-.86-3.42-.86-5.46V12.19h5.83v18.95c0,1.04.13,1.99.39,2.85.26.86.65,1.61,1.17,2.24.52.63,1.17,1.13,1.94,1.49.78.36,1.67.54,2.68.54s1.94-.18,2.72-.54c.78-.36,1.42-.86,1.94-1.49.52-.63.91-1.38,1.17-2.24.26-.86.39-1.81.39-2.85V12.19h5.83v18.6c0,1.93-.28,3.69-.84,5.29-.56,1.6-1.37,2.96-2.42,4.1-1.05,1.14-2.32,2.02-3.8,2.65-1.48.63-3.14.95-4.99.95ZM96.87,24.71h.35c.66-1.06,1.55-1.91,2.68-2.53,1.12-.62,2.4-.93,3.84-.93,1.32,0,2.49.22,3.5.65s1.83,1.04,2.48,1.83,1.14,1.74,1.47,2.85c.33,1.11.5,2.34.5,3.69v12.82h-5.65v-12.13c0-1.52-.34-2.65-1.01-3.39-.68-.73-1.66-1.1-2.96-1.1-.78,0-1.46.17-2.05.5-.59.33-1.09.78-1.51,1.34-.42.56-.73,1.22-.95,1.99-.22.76-.32,1.58-.32,2.44v10.36h-5.65v-21.15h5.31v2.76ZM116.34,43.1V12.19h5.65v30.91h-5.65ZM146.64,38c-.98,1.73-2.29,3.12-3.95,4.19-1.65,1.06-3.68,1.6-6.06,1.6-1.61,0-3.1-.28-4.47-.84-1.37-.56-2.55-1.35-3.56-2.35-1.01-1.01-1.79-2.19-2.35-3.56s-.84-2.87-.84-4.51c0-1.53.27-2.97.82-4.34.55-1.37,1.31-2.56,2.29-3.58.98-1.02,2.14-1.83,3.48-2.44,1.34-.6,2.81-.91,4.42-.91,1.7,0,3.21.28,4.53.84,1.32.56,2.43,1.34,3.32,2.33.89.99,1.57,2.17,2.03,3.52.46,1.35.69,2.82.69,4.4v.52c-.03.17-.04.33-.04.47-.03.14-.04.3-.04.48h-15.93c.11.86.35,1.6.71,2.22.36.62.81,1.14,1.34,1.55.53.42,1.11.72,1.75.91.63.19,1.28.28,1.94.28,1.29,0,2.37-.29,3.22-.88.85-.59,1.52-1.33,2.01-2.22l4.71,2.33ZM141.5,29.8c-.03-.37-.15-.79-.37-1.25s-.53-.89-.95-1.3c-.42-.4-.94-.73-1.55-.99-.62-.26-1.36-.39-2.22-.39-1.21,0-2.27.35-3.19,1.04-.92.69-1.57,1.66-1.94,2.89h10.23ZM163.86,40.85h-.35c-.66.81-1.46,1.5-2.4,2.07-.94.58-2.14.86-3.6.86-1.09,0-2.12-.18-3.09-.54-.96-.36-1.81-.86-2.52-1.49-.72-.63-1.28-1.4-1.68-2.29-.4-.89-.6-1.87-.6-2.94s.22-2.08.65-2.96c.43-.88,1.04-1.63,1.81-2.27.78-.63,1.69-1.11,2.74-1.45,1.05-.33,2.19-.5,3.43-.5,1.38,0,2.52.11,3.41.32.89.22,1.63.44,2.2.67v-.65c0-1.12-.45-2.05-1.34-2.78-.89-.73-2-1.1-3.32-1.1-1.96,0-3.61.82-4.96,2.46l-4.1-2.81c2.24-2.82,5.31-4.23,9.19-4.23,3.28,0,5.78.77,7.51,2.31,1.73,1.54,2.59,3.82,2.59,6.84v12.69h-5.57v-2.24ZM163.86,34.51c-.66-.32-1.35-.57-2.05-.76-.71-.19-1.48-.28-2.31-.28-1.35,0-2.4.3-3.13.89s-1.1,1.32-1.1,2.18.35,1.55,1.06,2.07c.7.52,1.52.78,2.44.78.75,0,1.44-.14,2.07-.41.63-.27,1.17-.63,1.62-1.08.45-.45.79-.96,1.04-1.55.24-.59.37-1.2.37-1.83ZM182.08,43.79c-1.38,0-2.61-.17-3.69-.52-1.08-.35-2.01-.8-2.81-1.36-.79-.56-1.46-1.21-2.01-1.94-.55-.73-.96-1.47-1.25-2.22l5.05-2.16c.49,1.09,1.14,1.91,1.96,2.44.82.53,1.73.8,2.74.8s1.86-.19,2.46-.56c.6-.37.91-.82.91-1.34,0-.58-.25-1.04-.76-1.4-.5-.36-1.37-.68-2.61-.97l-2.98-.65c-.66-.14-1.35-.37-2.05-.69-.71-.32-1.35-.72-1.92-1.21-.58-.49-1.05-1.08-1.42-1.77-.37-.69-.56-1.5-.56-2.42,0-1.04.22-1.96.67-2.76.45-.81,1.06-1.49,1.83-2.05.78-.56,1.69-.99,2.74-1.29,1.05-.3,2.18-.45,3.39-.45,2.01,0,3.81.4,5.4,1.19,1.58.79,2.75,2.05,3.5,3.78l-4.88,1.99c-.4-.83-.99-1.44-1.77-1.81-.78-.37-1.55-.56-2.33-.56s-1.51.17-2.12.5c-.6.33-.91.76-.91,1.27,0,.49.25.88.76,1.17.5.29,1.19.55,2.05.78l3.24.78c2.16.52,3.76,1.35,4.81,2.48,1.05,1.14,1.58,2.48,1.58,4.04,0,.92-.22,1.8-.65,2.63-.43.83-1.04,1.58-1.83,2.22-.79.65-1.74,1.16-2.85,1.53s-2.34.56-3.69.56ZM194.55,12.19h5.66v8.68l-.35,3.84h.35c.6-1.01,1.47-1.83,2.61-2.48,1.14-.65,2.41-.97,3.82-.97,2.73,0,4.75.81,6.06,2.42,1.31,1.61,1.96,3.81,1.96,6.6v12.82h-5.65v-12.13c0-1.47-.35-2.58-1.04-3.35-.69-.76-1.66-1.14-2.89-1.14-.78,0-1.47.17-2.07.5-.6.33-1.12.78-1.53,1.36-.42.58-.73,1.24-.95,2.01-.22.76-.32,1.58-.32,2.44v10.32h-5.66V12.19ZM220.02,43.1V12.19h10.88c1.47,0,2.84.24,4.12.71,1.28.47,2.4,1.14,3.35,2.01.95.86,1.7,1.89,2.24,3.09.55,1.19.82,2.51.82,3.95s-.27,2.8-.82,3.99c-.55,1.19-1.29,2.22-2.24,3.09-.95.86-2.07,1.53-3.35,2.01-1.28.47-2.65.71-4.12.71h-5.05v11.35h-5.83ZM230.98,26.22c1.52,0,2.68-.43,3.45-1.29.78-.86,1.17-1.86,1.17-2.98,0-.55-.09-1.08-.28-1.6-.19-.52-.47-.97-.86-1.36-.39-.39-.87-.7-1.45-.93-.58-.23-1.25-.35-2.03-.35h-5.14v8.5h5.14ZM259.78,43.79c-2.3,0-4.44-.42-6.41-1.25-1.97-.83-3.68-1.98-5.12-3.43-1.44-1.45-2.57-3.17-3.39-5.14-.82-1.97-1.23-4.08-1.23-6.32s.41-4.35,1.23-6.32c.82-1.97,1.95-3.68,3.39-5.14,1.44-1.45,3.14-2.6,5.12-3.43,1.97-.83,4.11-1.25,6.41-1.25s4.44.42,6.41,1.25c1.97.83,3.68,1.98,5.12,3.43,1.44,1.45,2.57,3.17,3.39,5.14.82,1.97,1.23,4.08,1.23,6.32s-.41,4.35-1.23,6.32c-.82,1.97-1.95,3.68-3.39,5.14-1.44,1.45-3.14,2.6-5.12,3.43-1.97.83-4.11,1.25-6.41,1.25ZM259.78,38.26c1.44,0,2.78-.26,4.04-.78,1.25-.52,2.35-1.24,3.28-2.16.93-.92,1.67-2.04,2.2-3.35.53-1.31.8-2.75.8-4.34s-.27-3.03-.8-4.34c-.53-1.31-1.27-2.42-2.2-3.35-.94-.92-2.03-1.64-3.28-2.16-1.25-.52-2.6-.78-4.04-.78s-2.78.26-4.04.78c-1.25.52-2.35,1.24-3.28,2.16-.94.92-1.67,2.04-2.2,3.35-.53,1.31-.8,2.76-.8,4.34s.27,3.03.8,4.34c.53,1.31,1.27,2.42,2.2,3.35.93.92,2.03,1.64,3.28,2.16s2.6.78,4.04.78ZM290.08,43.79c-1.32,0-2.59-.19-3.8-.56-1.21-.37-2.32-.93-3.32-1.68-1.01-.75-1.88-1.66-2.63-2.74-.75-1.08-1.34-2.34-1.77-3.78l5.48-2.16c.4,1.55,1.11,2.84,2.12,3.86,1.01,1.02,2.33,1.53,3.97,1.53.6,0,1.19-.08,1.75-.24.56-.16,1.06-.39,1.51-.69.45-.3.8-.68,1.06-1.14.26-.46.39-.99.39-1.6s-.1-1.09-.3-1.55c-.2-.46-.54-.89-1.01-1.29-.47-.4-1.09-.79-1.86-1.17-.76-.37-1.71-.76-2.83-1.17l-1.9-.69c-.83-.29-1.68-.68-2.53-1.17-.85-.49-1.62-1.08-2.31-1.77-.69-.69-1.26-1.5-1.71-2.44-.45-.93-.67-1.99-.67-3.17s.24-2.34.71-3.39c.47-1.05,1.15-1.97,2.03-2.76.88-.79,1.93-1.41,3.15-1.86,1.22-.45,2.58-.67,4.08-.67s2.9.21,4.04.63c1.14.42,2.1.95,2.89,1.6.79.65,1.43,1.36,1.92,2.14.49.78.85,1.51,1.08,2.2l-5.14,2.16c-.29-.86-.81-1.64-1.58-2.33-.76-.69-1.81-1.04-3.13-1.04s-2.32.3-3.15.88c-.83.59-1.25,1.36-1.25,2.31s.4,1.71,1.21,2.35,2.09,1.27,3.84,1.88l1.94.65c1.24.43,2.37.93,3.39,1.49,1.02.56,1.9,1.23,2.63,2.01.73.78,1.29,1.66,1.68,2.65s.58,2.14.58,3.43c0,1.61-.32,3-.97,4.17s-1.47,2.12-2.48,2.87c-1.01.75-2.14,1.31-3.41,1.68-1.27.37-2.5.56-3.71.56Z"/>
        <g>
          <path class="cls-2" d="M55.12,8.26L46.57.44c-.68-.62-1.72-.57-2.34.1l-7.83,8.55s1.05,11.68-.1,21.81c-.75,7-1.68,11.84-8.56,11.84-5.74,0-7.52-4.06-8.35-10.11,0,0-4.05,16.35,8.35,16.35,4.82,0,7.92-1.05,10.08-3.4.39-.42.75-.9,1.1-1.42,1.58-2.41,2.7-6.81,3.36-12.5,1.1-10.62.46-20.98.46-20.98l2.98-3.25,3.25,2.98s.65,12.04-.4,21.4c-.54,5.18-1.41,9.46-2.62,12.33-.96,2.27-2.14,4.14-3.54,5.67-.19.21-.39.41-.59.61,0,0,9.91.47,11.88-10.15.63-2.73,1.09-5.78,1.38-9.2.69-8.3.03-22.79.03-22.79Z"/>
          <path class="cls-1" d="M27.74,42.74c-5.74,0-7.52-4.06-8.35-10.11,0,0-4.05,16.35,8.35,16.35,4.82,0,7.92-1.05,10.08-3.4.05-.05.09-.1.14-.16-2.24-.72-4.33-1.92-5.97-3.62-1.08.6-2.46.93-4.24.93ZM45.04,46.06c-.77,1.43-1.64,2.67-2.62,3.74-.19.21-.39.41-.59.61,0,0,9.91.47,11.88-10.15.15-.66.29-1.34.43-2.04-.88,4.63-4.68,7.22-9.09,7.83Z"/>
          <path class="cls-4" d="M11.43,47.71h0c-4.83-7.24-6.18-20.33-4.51-43.3.13-1.81-1.3-3.35-3.11-3.35h0C2.17,1.06.81,2.32.69,3.96c-2.01,27.64.26,41.88,7.77,50.06,4.59,5.01,10.9,7.44,19.28,7.44,3.45,0,6.55-.41,9.32-1.25-7.47.31-18.8-2.14-25.63-12.5Z"/>
          <path class="cls-5" d="M20.63,38.26c-.7-1.57-1.09-3.97-1.46-7.36-.68-6.38-.6-15.07.26-26.49.14-1.81-1.3-3.35-3.11-3.35h0c-1.63,0-2.99,1.26-3.11,2.89-1.15,15.25-.95,26.04.65,33.17.86,3.84,2.55,13.15,17.23,16.94,9.1,2.34,20.05.17,22.61-13.79-2.72,13.04-26.98,11.71-33.07-2Z"/>
        </g>
      </g>
    </g>
  </g>
</svg>