<svg width="303" height="46" viewBox="0 0 303 46" fill="none" xmlns="http://www.w3.org/2000/svg">
<path d="M33.3625 45.1399L55.6342 7.19262L55.6328 7.19406V7.16246V0.833374H22.4593L18.6205 7.16246H48.3171L29.5639 39.1023H22.8269L37.4972 14.2383L14.3609 14.2585L10.6973 20.2974H26.6141L11.9568 45.1399H33.3625Z" fill="white"/>
<path fill-rule="evenodd" clip-rule="evenodd" d="M13.6979 34.6676L7.64173 44.982H0L6.06771 34.6676H13.6979Z" fill="white"/>
<path d="M84.3408 13.3775L71.4504 35.6656H66.0332L78.8877 14.3711H66.7665L67.4159 10.3038H84.8107L84.3408 13.3775ZM113.794 35.6656H108.688L110.574 24.7864H100.727L98.8294 35.6656H93.7295L98.135 10.3038H103.235L101.439 20.5784H111.304L113.076 10.3038H118.181L113.794 35.6656ZM135.564 24.6428H125.843L124.661 31.4546H136.088L135.358 35.6626H118.831L123.236 10.3008H139.727L138.979 14.5447H127.606L126.541 20.5724H136.298L135.567 24.6398L135.564 24.6428ZM153.833 30.458H144.986L142.376 35.6656H136.746L150.301 10.3038H155.021L159.843 35.6656H154.635L153.833 30.458ZM147.081 26.214H153.192L151.765 16.7685L147.081 26.214ZM168.69 31.4576H179.455L178.719 35.6656H162.857L167.262 10.3038H172.362L168.687 31.4576H168.69ZM200.875 14.5507H193.348L189.691 35.6686H184.591L188.248 14.5507H180.811L181.559 10.3068H201.624L200.875 14.5507ZM220.784 35.6686H215.678L217.564 24.7894H207.717L205.82 35.6686H200.72L205.125 10.3068H210.225L208.429 20.5814H218.294L220.066 10.3068H225.172L220.784 35.6686ZM241.282 26.7498L239.711 35.6686H234.611L239.017 10.3068L247.9 10.3247C250.641 10.3247 252.793 11.0849 254.361 12.6083C255.933 14.1287 256.615 16.122 256.412 18.5702C256.226 21.0603 255.193 23.0476 253.308 24.532C251.416 26.0255 249.01 26.7677 246.083 26.7677L241.279 26.7498H241.282ZM241.995 22.5058L246.245 22.5418C247.612 22.5418 248.747 22.1856 249.657 21.4763C250.56 20.77 251.102 19.8122 251.273 18.6061C251.452 17.4 251.255 16.4362 250.689 15.7179C250.123 14.9996 249.291 14.6196 248.193 14.5717L243.383 14.5537L241.992 22.5088L241.995 22.5058ZM268.431 26.3936H264.283L262.667 35.6686H257.567L261.972 10.3068L270.367 10.3247C273.181 10.3247 275.339 10.9862 276.853 12.312C278.37 13.6379 279.041 15.4815 278.867 17.8339C278.625 21.3236 276.763 23.7419 273.292 25.1037L276.865 35.3903V35.6686H271.43L268.434 26.3936H268.431ZM265.013 22.1497L268.811 22.1856C270.161 22.1617 271.271 21.7995 272.145 21.0992C273.025 20.3988 273.549 19.4471 273.72 18.241C273.887 17.1186 273.702 16.2387 273.178 15.5952C272.66 14.9577 271.828 14.6196 270.694 14.5717L266.336 14.5537L265.01 22.1527L265.013 22.1497ZM290.477 36.0248C288.795 35.9889 287.313 35.5908 286.029 34.8306C284.745 34.0704 283.728 32.969 282.98 31.5384C282.231 30.1048 281.797 28.4587 281.684 26.5971C281.552 24.6877 281.761 22.6555 282.291 20.4976C282.827 18.3337 283.689 16.4362 284.871 14.7961C286.053 13.156 287.445 11.9319 289.046 11.1149C290.638 10.3068 292.368 9.91471 294.224 9.95063C295.93 9.98654 297.423 10.3906 298.701 11.1627C299.979 11.9349 300.985 13.0423 301.715 14.4909C302.445 15.9364 302.861 17.5765 302.969 19.4142C303.089 21.4583 302.861 23.5623 302.308 25.7232C301.748 27.8871 300.88 29.7606 299.71 31.3349C298.54 32.9151 297.166 34.1063 295.589 34.8905C294.017 35.6806 292.311 36.0607 290.477 36.0248ZM297.708 22.2903L297.851 20.6383C297.965 18.5702 297.69 17.0049 297.025 15.9364C296.355 14.871 295.343 14.3143 293.981 14.2664C291.859 14.1946 290.171 15.1343 288.923 17.0827C287.675 19.0341 286.975 21.7606 286.807 25.2683C286.694 27.3184 286.969 28.9017 287.628 30.012C288.289 31.1194 289.316 31.694 290.713 31.7419C292.533 31.8257 294.041 31.1104 295.238 29.608C296.433 28.1026 297.22 25.9806 297.594 23.2301L297.714 22.2903H297.708Z" fill="white"/>
</svg>
