<svg width="177" height="84" viewBox="0 0 177 84" fill="none" xmlns="http://www.w3.org/2000/svg">
<path d="M89.3625 44.3065L111.634 6.35925L111.633 6.36068V6.32909V0H78.4593L74.6205 6.32909H104.317L85.5639 38.2689H78.8269L93.4972 13.405L70.3609 13.4251L66.6973 19.4641H82.6141L67.9568 44.3065H89.3625Z" fill="#393A96"/>
<path fill-rule="evenodd" clip-rule="evenodd" d="M69.6979 33.8342L63.6417 44.1486H56L62.0677 33.8342H69.6979Z" fill="#393A96"/>
<path d="M13.6746 66.8049L4.04628 83.0432H0L9.60154 67.5288H0.547701L1.03281 64.5655H14.0256L13.6746 66.8049ZM35.6744 83.0432H31.8606L33.2689 75.117H25.9141L24.4968 83.0432H20.6875L23.9781 64.5655H27.7875L26.4461 72.0512H33.8144L35.1378 64.5655H38.9516L35.6744 83.0432ZM51.9355 75.0123H44.6745L43.7915 79.9752H52.3267L51.7812 83.041H39.4367L42.7274 64.5633H55.0451L54.4862 67.6553H45.9913L45.1954 72.0468H52.4832L51.9377 75.0101L51.9355 75.0123ZM65.5811 79.2491H58.9729L57.0235 83.0432H52.8185L62.9432 64.5655H66.4686L70.07 83.0432H66.1802L65.5811 79.2491ZM60.5378 76.1571H65.1027L64.0363 69.2754L60.5378 76.1571ZM76.6782 79.9774H84.7193L84.1694 83.0432H72.3212L75.6118 64.5655H79.4212L76.6759 79.9774H76.6782ZM100.719 67.6596H95.0966L92.3648 83.0453H88.5555L91.2873 67.6596H85.732L86.2909 64.5676H101.278L100.719 67.6596ZM115.59 83.0453H111.776L113.184 75.1192H105.829L104.412 83.0453H100.603L103.893 64.5676H107.703L106.361 72.0534H113.73L115.053 64.5676H118.867L115.59 83.0453ZM130.901 76.5474L129.727 83.0453H125.918L129.208 64.5676L135.843 64.5807C137.891 64.5807 139.498 65.1346 140.67 66.2445C141.843 67.3522 142.353 68.8044 142.201 70.5881C142.063 72.4022 141.291 73.8501 139.883 74.9316C138.47 76.0197 136.673 76.5605 134.486 76.5605L130.898 76.5474H130.901ZM131.433 73.4554L134.607 73.4816C135.629 73.4816 136.476 73.2221 137.156 72.7053C137.831 72.1907 138.235 71.493 138.363 70.6142C138.497 69.7355 138.349 69.0333 137.927 68.51C137.504 67.9867 136.883 67.7098 136.062 67.6749L132.47 67.6618L131.43 73.4576L131.433 73.4554ZM151.179 76.2879H148.081L146.873 83.0453H143.064L146.355 64.5676L152.625 64.5807C154.727 64.5807 156.339 65.0626 157.47 66.0286C158.603 66.9946 159.104 68.3378 158.974 70.0516C158.793 72.5941 157.403 74.356 154.809 75.3481L157.479 82.8426V83.0453H153.419L151.181 76.2879H151.179ZM148.626 73.1959L151.463 73.2221C152.471 73.2047 153.3 72.9408 153.953 72.4306C154.61 71.9203 155.002 71.2269 155.129 70.3482C155.254 69.5305 155.116 68.8894 154.724 68.4206C154.338 67.9562 153.716 67.7098 152.869 67.6749L149.614 67.6618L148.624 73.1981L148.626 73.1959ZM167.646 83.3048C166.389 83.2787 165.283 82.9887 164.324 82.4348C163.365 81.8809 162.605 81.0785 162.046 80.0362C161.487 78.9918 161.163 77.7925 161.078 76.4362C160.979 75.045 161.136 73.5645 161.532 71.9923C161.932 70.4158 162.576 69.0333 163.459 67.8384C164.342 66.6435 165.381 65.7517 166.577 65.1564C167.766 64.5676 169.059 64.282 170.445 64.3082C171.719 64.3343 172.834 64.6287 173.789 65.1913C174.744 65.7538 175.495 66.5606 176.04 67.616C176.586 68.6692 176.896 69.8641 176.977 71.203C177.066 72.6923 176.896 74.2252 176.483 75.7995C176.065 77.376 175.416 78.741 174.542 79.888C173.668 81.0393 172.642 81.9071 171.464 82.4784C170.29 83.0541 169.016 83.331 167.646 83.3048ZM173.047 73.2984L173.154 72.0948C173.239 70.5881 173.033 69.4476 172.537 68.6692C172.036 67.8929 171.281 67.4874 170.264 67.4525C168.679 67.4001 167.418 68.0848 166.486 69.5043C165.553 70.926 165.03 72.9125 164.905 75.468C164.82 76.9617 165.026 78.1152 165.518 78.9242C166.012 79.731 166.778 80.1496 167.822 80.1845C169.182 80.2456 170.308 79.7244 171.202 78.6298C172.094 77.533 172.682 75.987 172.962 73.9831L173.051 73.2984H173.047Z" fill="#393A96"/>
</svg>
