<svg width="869.14619140625px" height="166.96942138671875px" xmlns="http://www.w3.org/2000/svg" viewBox="-184.57309570312498 -8.484710693359375 869.14619140625 166.96942138671875" style="background: rgba(0, 0, 0, 0);" preserveAspectRatio="xMidYMid"><defs><linearGradient id="editing-shadow-gradient1" x1="0" x2="0" y1="0" y2="1"><stop offset="0" stop-color="#000000" stop-opacity="0"></stop><stop offset="0.2" stop-color="#000000" stop-opacity="0"></stop><stop offset="1" stop-color="#000000" stop-opacity="1"></stop></linearGradient><linearGradient id="editing-shadow-gradient2" x1="0.24118095489747926" x2="0.7588190451025207" y1="-0.4659258262890683" y2="1.4659258262890682"><stop offset="0" stop-color="#ffffff"></stop><stop offset="1" stop-color="#fec918"></stop></linearGradient><filter id="editing-shadow" x="-100%" y="-100%" width="300%" height="300%"><feGaussianBlur stdDeviation="5.13"></feGaussianBlur><feComposite operator="in" in2="SourceGraphic"></feComposite><feGaussianBlur stdDeviation="2.565"></feGaussianBlur></filter></defs><g transform="translate(250,75)"><g transform="translate(-37.5, 4.5)"><g transform="skewX(45)"><g filter="url(#editing-shadow)"><g transform="translate(-258.1249804496765, 42.779998779296875)"><path d="M31.43-3.91L31.43-3.91L31.43-3.91Q26.97 1.86 15.90 1.86L15.90 1.86L15.90 1.86Q10.14 1.86 5.95-1.63L5.95-1.63L5.95-1.63Q1.77-5.12 1.77-10.14L1.77-10.14L1.77-10.14Q1.77-12.93 2.05-14.32L2.05-14.32L8.28-47.43L27.16-49.29L20.37-13.39L20.37-13.39Q20.00-11.35 20.00-10.14L20.00-10.14L20.00-10.14Q20.00-4.74 23.25-4.74L23.25-4.74L23.25-4.74Q26.88-4.74 29.48-9.67L29.48-9.67L29.48-9.67Q30.32-11.25 30.69-13.30L30.69-13.30L37.29-47.43L55.61-49.29L48.73-13.02L48.73-13.02Q48.45-11.63 48.45-10.14L48.45-10.14L48.45-10.14Q48.45-8.65 49.29-7.02L49.29-7.02L49.29-7.02Q50.13-5.39 52.82-5.02L52.82-5.02L52.82-5.02Q52.27-2.79 50.31-1.30L50.31-1.30L50.31-1.30Q46.22 1.86 41.80 1.86L41.80 1.86L41.80 1.86Q37.39 1.86 34.78 0.28L34.78 0.28L34.78 0.28Q32.18-1.30 31.43-3.91ZM99.97 1.86L99.97 1.86L99.97 1.86Q88.72 1.86 88.72-6.88L88.72-6.88L88.72-6.88Q88.81-9.30 89.56-13.39L89.56-13.39L91.23-21.95L91.23-21.95Q93.74-34.04 93.74-36.73L93.74-36.73L93.74-36.73Q93.74-42.13 90.58-42.13L90.58-42.13L90.58-42.13Q85.28-42.13 82.49-28.27L82.49-28.27L77.00 0L58.31 1.86L67.98-47.52L83.23-49.29L81.75-40.18L81.75-40.18Q86.12-49.29 99.51-49.29L99.51-49.29L99.51-49.29Q106.02-49.29 108.76-46.55L108.76-46.55L108.76-46.55Q111.51-43.80 111.51-37.66L111.51-37.66L111.51-37.66Q111.51-31.90 108.53-18.41L108.53-18.41L108.53-18.41Q107.14-12.37 107.14-10.09L107.14-10.09L107.14-10.09Q107.14-7.81 108.39-6.51L108.39-6.51L108.39-6.51Q109.65-5.21 111.51-5.02L111.51-5.02L111.51-5.02Q110.58-1.86 107.37 0L107.37 0L107.37 0Q104.16 1.86 99.97 1.86ZM141.17-5.12L141.17-5.12L141.17-5.12Q138.29 1.86 129.08 1.86L129.08 1.86L129.08 1.86Q124.43 1.86 121.46-1.40L121.46-1.40L121.46-1.40Q119.04-4.09 119.04-7.16L119.04-7.16L119.04-7.16Q119.04-14.14 122.30-29.39L122.30-29.39L129.08-65.10L147.96-66.96L138.94-19.90L138.94-19.90Q137.36-13.02 137.36-10.60L137.36-10.60L137.36-10.60Q137.36-5.30 141.17-5.12ZM186.74-15.72L186.74-15.72L186.74-15.72Q189.07-14.14 189.07-10.65L189.07-10.65L189.07-10.65Q189.07-7.16 187.30-4.93L187.30-4.93L187.30-4.93Q185.53-2.70 182.65-1.21L182.65-1.21L182.65-1.21Q176.70 1.86 170.28 1.86L170.28 1.86L170.28 1.86Q163.87 1.86 160.10 0.46L160.10 0.46L160.10 0.46Q156.33-0.93 153.82-3.53L153.82-3.53L153.82-3.53Q148.89-8.46 148.89-17.48L148.89-17.48L148.89-17.48Q148.89-31.53 156.52-40.08L156.52-40.08L156.52-40.08Q164.70-49.29 178.93-49.29L178.93-49.29L178.93-49.29Q187.77-49.29 192.14-45.57L192.14-45.57L192.14-45.57Q195.39-42.78 195.39-38.22L195.39-38.22L195.39-38.22Q195.39-21.86 167.12-21.86L167.12-21.86L167.12-21.86Q166.75-19.44 166.75-17.39L166.75-17.39L166.75-17.39Q166.75-13.11 168.66-11.49L168.66-11.49L168.66-11.49Q170.56-9.86 174.10-9.86L174.10-9.86L174.10-9.86Q177.63-9.86 181.40-11.49L181.40-11.49L181.40-11.49Q185.16-13.11 186.74-15.72ZM167.77-25.85L167.77-25.85L167.77-25.85Q174.38-25.85 178.19-29.95L178.19-29.95L178.19-29.95Q182.00-33.85 182.00-40.08L182.00-40.08L182.00-40.08Q182.00-42.22 181.21-43.38L181.21-43.38L181.21-43.38Q180.42-44.55 178.84-44.55L178.84-44.55L178.84-44.55Q177.26-44.55 175.91-43.94L175.91-43.94L175.91-43.94Q174.56-43.34 173.17-41.29L173.17-41.29L173.17-41.29Q169.72-36.64 167.77-25.85ZM202.60-2.79L202.60-2.79L202.60-2.79Q200.41-5.21 199.44-9.02L199.44-9.02L199.44-9.02Q198.46-12.83 198.46-19.07L198.46-19.07L198.46-19.07Q198.46-25.30 200.60-30.97L200.60-30.97L200.60-30.97Q202.74-36.64 206.65-40.73L206.65-40.73L206.65-40.73Q214.64-49.29 227.85-49.29L227.85-49.29L227.85-49.29Q232.59-49.29 236.03-47.71L236.03-47.71L251.94-49.29L245.06-13.02L245.06-13.02Q244.78-11.90 244.78-9.86L244.78-9.86L244.78-9.86Q244.78-7.81 246.03-6.51L246.03-6.51L246.03-6.51Q247.29-5.21 249.15-5.02L249.15-5.02L249.15-5.02Q248.22-1.86 244.82 0L244.82 0L244.82 0Q241.43 1.86 237.61 1.86L237.61 1.86L237.61 1.86Q233.80 1.86 231.24 0.42L231.24 0.42L231.24 0.42Q228.69-1.02 227.94-3.44L227.94-3.44L227.94-3.44Q226.45-1.12 223.29 0.37L223.29 0.37L223.29 0.37Q220.13 1.86 215.90 1.86L215.90 1.86L215.90 1.86Q211.67 1.86 208.23 0.74L208.23 0.74L208.23 0.74Q204.79-0.37 202.60-2.79ZM222.22-40.55L222.22-40.55L222.22-40.55Q221.15-38.87 220.22-36.04L220.22-36.04L220.22-36.04Q219.29-33.20 217.76-25.62L217.76-25.62L217.76-25.62Q216.22-18.04 216.22-12.65L216.22-12.65L216.22-12.65Q216.22-7.25 217.06-5.67L217.06-5.67L217.06-5.67Q217.90-4.09 219.39-4.09L219.39-4.09L219.39-4.09Q222.36-4.09 224.55-6.93L224.55-6.93L224.55-6.93Q226.73-9.77 227.57-14.79L227.57-14.79L232.50-42.04L232.50-42.04Q230.55-43.71 228.27-43.71L228.27-43.71L228.27-43.71Q225.99-43.71 224.64-42.97L224.64-42.97L224.64-42.97Q223.29-42.22 222.22-40.55ZM284.77-32.64L284.77-32.64L284.77-32.64Q286.07-36.08 286.07-39.06L286.07-39.06L286.07-39.06Q286.07-44.55 281.60-44.55L281.60-44.55L281.60-44.55Q279.28-44.55 277.37-42.45L277.37-42.45L277.37-42.45Q275.47-40.36 275.47-37.76L275.47-37.76L275.47-37.76Q275.47-35.90 276.95-34.41L276.95-34.41L276.95-34.41Q279.09-32.36 284.58-29.02L284.58-29.02L284.58-29.02Q290.07-25.67 292.16-22.92L292.16-22.92L292.16-22.92Q294.25-20.18 294.25-16.41L294.25-16.41L294.25-16.41Q294.25-12.65 292.44-9.21L292.44-9.21L292.44-9.21Q290.63-5.77 287.37-3.35L287.37-3.35L287.37-3.35Q280.39 1.86 269.24 1.86L269.24 1.86L269.24 1.86Q263.19 1.86 258.54-1.30L258.54-1.30L258.54-1.30Q253.89-4.37 253.89-8.00L253.89-8.00L253.89-8.00Q253.89-11.63 256.54-13.76L256.54-13.76L256.54-13.76Q259.19-15.90 263.10-15.90L263.10-15.90L263.10-15.90Q267.00-15.90 269.42-14.41L269.42-14.41L269.42-14.41Q268.21-11.35 268.21-9.30L268.21-9.30L268.21-9.30Q268.21-3.16 273.42-3.16L273.42-3.16L273.42-3.16Q275.65-3.16 277.14-4.56L277.14-4.56L277.14-4.56Q278.63-5.95 278.63-8.37L278.63-8.37L278.63-8.37Q278.63-13.11 270.63-18.14L270.63-18.14L270.63-18.14Q264.12-22.41 262.63-24.09L262.63-24.09L262.63-24.09Q260.12-27.06 260.12-30.78L260.12-30.78L260.12-30.78Q260.12-34.50 261.89-38.04L261.89-38.04L261.89-38.04Q263.65-41.57 266.91-44.08L266.91-44.08L266.91-44.08Q273.70-49.29 285.51-49.29L285.51-49.29L285.51-49.29Q291.56-49.29 295.14-46.87L295.14-46.87L295.14-46.87Q298.72-44.45 298.72-40.36L298.72-40.36L298.72-40.36Q298.72-36.27 296.25-33.95L296.25-33.95L296.25-33.95Q293.79-31.62 289.32-31.62L289.32-31.62L289.32-31.62Q286.25-31.62 284.77-32.64ZM348.94-10.32L348.94-10.32L348.94-10.32Q348.94-6.23 353.12-5.02L353.12-5.02L353.12-5.02Q352.10-1.58 348.10 0.28L348.10 0.28L348.10 0.28Q344.75 1.86 341.08 1.86L341.08 1.86L341.08 1.86Q337.40 1.86 335.50 0.88L335.50 0.88L335.50 0.88Q333.59-0.09 332.57-1.67L332.57-1.67L332.57-1.67Q330.89-4.09 330.89-8.65L330.89-8.65L330.89-8.65Q330.89-11.35 332.38-18.79L332.38-18.79L333.68-25.85L333.68-25.85Q335.26-33.95 335.26-36.92L335.26-36.92L335.26-36.92Q335.26-42.13 332.38-42.13L332.38-42.13L332.38-42.13Q328.75-42.13 326.43-36.83L326.43-36.83L326.43-36.83Q325.50-34.78 324.85-31.71L324.85-31.71L318.52 0L299.83 1.86L312.94-65.10L331.64-66.96L330.89-63.24L330.89-63.24Q328.29-48.92 326.06-44.08L326.06-44.08L326.06-44.08Q331.27-49.29 340.84-49.29L340.84-49.29L340.84-49.29Q350.98-49.29 352.84-42.59L352.84-42.59L352.84-42.59Q353.49-40.45 353.49-38.59L353.49-38.59L353.49-38.59Q353.49-36.73 353.35-35.29L353.35-35.29L353.35-35.29Q353.21-33.85 352.75-31.25L352.75-31.25L351.54-24.55L349.40-14.04L349.40-14.04Q348.94-11.90 348.94-10.32ZM403.99-6.37L403.99-6.37L403.99-6.37Q400.09-2.42 394.74-0.28L394.74-0.28L394.74-0.28Q389.39 1.86 384.09 1.86L384.09 1.86L384.09 1.86Q378.79 1.86 376.93 0.93L376.93 0.93L374.05 16.74L355.17 18.60L368.00-47.43L383.16-49.01L381.95-42.59L381.95-42.59Q385.86-49.20 393.95-49.20L393.95-49.20L393.95-49.20Q403.06-49.20 407.90-43.34L407.90-43.34L407.90-43.34Q412.18-38.04 412.18-29.95L412.18-29.95L412.18-29.95Q412.18-21.86 410.04-16.09L410.04-16.09L410.04-16.09Q407.90-10.32 403.99-6.37ZM382.97-32.46L378.04-5.21L378.04-5.21Q380.00-3.53 382.42-3.53L382.42-3.53L382.42-3.53Q384.83-3.53 386.23-4.46L386.23-4.46L386.23-4.46Q387.62-5.39 388.65-7.25L388.65-7.25L388.65-7.25Q391.44-12.28 393.67-27.53L393.67-27.53L393.67-27.53Q394.32-31.99 394.32-36.36L394.32-36.36L394.32-36.36Q394.32-40.73 393.34-42.13L393.34-42.13L393.34-42.13Q392.37-43.52 390.51-43.52L390.51-43.52L390.51-43.52Q384.83-43.52 382.97-32.46L382.97-32.46ZM438.03 1.86L438.03 1.86L438.03 1.86Q417.57 1.86 417.57-17.39L417.57-17.39L417.57-17.39Q417.57-31.06 425.10-39.90L425.10-39.90L425.10-39.90Q433.10-49.29 446.96-49.29L446.96-49.29L446.96-49.29Q457.00-49.29 462.12-44.64L462.12-44.64L462.12-44.64Q467.23-39.99 467.23-30.23L467.23-30.23L467.23-30.23Q467.23-15.35 459.23-6.70L459.23-6.70L459.23-6.70Q451.42 1.86 438.03 1.86ZM440.45-38.59L440.45-38.59L440.45-38.59Q439.33-36.08 438.45-32.32L438.45-32.32L438.45-32.32Q437.56-28.55 436.45-22.60L436.45-22.60L436.45-22.60Q435.33-16.65 435.33-9.30L435.33-9.30L435.33-9.30Q435.33-6.88 436.12-5.30L436.12-5.30L436.12-5.30Q436.91-3.72 439.05-3.72L439.05-3.72L439.05-3.72Q441.19-3.72 442.54-4.74L442.54-4.74L442.54-4.74Q443.89-5.77 444.91-8.18L444.91-8.18L444.91-8.18Q446.77-12.46 448.26-20.41L448.26-20.41L448.26-20.41Q449.75-28.36 449.89-31.81L449.89-31.81L449.89-31.81Q450.03-35.25 450.03-37.80L450.03-37.80L450.03-37.80Q450.03-40.36 449.28-42.04L449.28-42.04L449.28-42.04Q448.54-43.71 446.45-43.71L446.45-43.71L446.45-43.71Q444.35-43.71 442.96-42.41L442.96-42.41L442.96-42.41Q441.56-41.11 440.45-38.59ZM500.53-32.64L500.53-32.64L500.53-32.64Q501.83-36.08 501.83-39.06L501.83-39.06L501.83-39.06Q501.83-44.55 497.36-44.55L497.36-44.55L497.36-44.55Q495.04-44.55 493.13-42.45L493.13-42.45L493.13-42.45Q491.23-40.36 491.23-37.76L491.23-37.76L491.23-37.76Q491.23-35.90 492.71-34.41L492.71-34.41L492.71-34.41Q494.85-32.36 500.34-29.02L500.34-29.02L500.34-29.02Q505.83-25.67 507.92-22.92L507.92-22.92L507.92-22.92Q510.01-20.18 510.01-16.41L510.01-16.41L510.01-16.41Q510.01-12.65 508.20-9.21L508.20-9.21L508.20-9.21Q506.38-5.77 503.13-3.35L503.13-3.35L503.13-3.35Q496.15 1.86 485.00 1.86L485.00 1.86L485.00 1.86Q478.95 1.86 474.30-1.30L474.30-1.30L474.30-1.30Q469.65-4.37 469.65-8.00L469.65-8.00L469.65-8.00Q469.65-11.63 472.30-13.76L472.30-13.76L472.30-13.76Q474.95-15.90 478.86-15.90L478.86-15.90L478.86-15.90Q482.76-15.90 485.18-14.41L485.18-14.41L485.18-14.41Q483.97-11.35 483.97-9.30L483.97-9.30L483.97-9.30Q483.97-3.16 489.18-3.16L489.18-3.16L489.18-3.16Q491.41-3.16 492.90-4.56L492.90-4.56L492.90-4.56Q494.39-5.95 494.39-8.37L494.39-8.37L494.39-8.37Q494.39-13.11 486.39-18.14L486.39-18.14L486.39-18.14Q479.88-22.41 478.39-24.09L478.39-24.09L478.39-24.09Q475.88-27.06 475.88-30.78L475.88-30.78L475.88-30.78Q475.88-34.50 477.65-38.04L477.65-38.04L477.65-38.04Q479.41-41.57 482.67-44.08L482.67-44.08L482.67-44.08Q489.46-49.29 501.27-49.29L501.27-49.29L501.27-49.29Q507.31-49.29 510.90-46.87L510.90-46.87L510.90-46.87Q514.48-44.45 514.48-40.36L514.48-40.36L514.48-40.36Q514.48-36.27 512.01-33.95L512.01-33.95L512.01-33.95Q509.55-31.62 505.08-31.62L505.08-31.62L505.08-31.62Q502.01-31.62 500.53-32.64Z" fill="url(#editing-shadow-gradient1)"></path></g></g></g></g><g><g transform="translate(-258.1249804496765, 42.779998779296875)"><path d="M31.43-3.91L31.43-3.91L31.43-3.91Q26.97 1.86 15.90 1.86L15.90 1.86L15.90 1.86Q10.14 1.86 5.95-1.63L5.95-1.63L5.95-1.63Q1.77-5.12 1.77-10.14L1.77-10.14L1.77-10.14Q1.77-12.93 2.05-14.32L2.05-14.32L8.28-47.43L27.16-49.29L20.37-13.39L20.37-13.39Q20.00-11.35 20.00-10.14L20.00-10.14L20.00-10.14Q20.00-4.74 23.25-4.74L23.25-4.74L23.25-4.74Q26.88-4.74 29.48-9.67L29.48-9.67L29.48-9.67Q30.32-11.25 30.69-13.30L30.69-13.30L37.29-47.43L55.61-49.29L48.73-13.02L48.73-13.02Q48.45-11.63 48.45-10.14L48.45-10.14L48.45-10.14Q48.45-8.65 49.29-7.02L49.29-7.02L49.29-7.02Q50.13-5.39 52.82-5.02L52.82-5.02L52.82-5.02Q52.27-2.79 50.31-1.30L50.31-1.30L50.31-1.30Q46.22 1.86 41.80 1.86L41.80 1.86L41.80 1.86Q37.39 1.86 34.78 0.28L34.78 0.28L34.78 0.28Q32.18-1.30 31.43-3.91ZM99.97 1.86L99.97 1.86L99.97 1.86Q88.72 1.86 88.72-6.88L88.72-6.88L88.72-6.88Q88.81-9.30 89.56-13.39L89.56-13.39L91.23-21.95L91.23-21.95Q93.74-34.04 93.74-36.73L93.74-36.73L93.74-36.73Q93.74-42.13 90.58-42.13L90.58-42.13L90.58-42.13Q85.28-42.13 82.49-28.27L82.49-28.27L77.00 0L58.31 1.86L67.98-47.52L83.23-49.29L81.75-40.18L81.75-40.18Q86.12-49.29 99.51-49.29L99.51-49.29L99.51-49.29Q106.02-49.29 108.76-46.55L108.76-46.55L108.76-46.55Q111.51-43.80 111.51-37.66L111.51-37.66L111.51-37.66Q111.51-31.90 108.53-18.41L108.53-18.41L108.53-18.41Q107.14-12.37 107.14-10.09L107.14-10.09L107.14-10.09Q107.14-7.81 108.39-6.51L108.39-6.51L108.39-6.51Q109.65-5.21 111.51-5.02L111.51-5.02L111.51-5.02Q110.58-1.86 107.37 0L107.37 0L107.37 0Q104.16 1.86 99.97 1.86ZM141.17-5.12L141.17-5.12L141.17-5.12Q138.29 1.86 129.08 1.86L129.08 1.86L129.08 1.86Q124.43 1.86 121.46-1.40L121.46-1.40L121.46-1.40Q119.04-4.09 119.04-7.16L119.04-7.16L119.04-7.16Q119.04-14.14 122.30-29.39L122.30-29.39L129.08-65.10L147.96-66.96L138.94-19.90L138.94-19.90Q137.36-13.02 137.36-10.60L137.36-10.60L137.36-10.60Q137.36-5.30 141.17-5.12ZM186.74-15.72L186.74-15.72L186.74-15.72Q189.07-14.14 189.07-10.65L189.07-10.65L189.07-10.65Q189.07-7.16 187.30-4.93L187.30-4.93L187.30-4.93Q185.53-2.70 182.65-1.21L182.65-1.21L182.65-1.21Q176.70 1.86 170.28 1.86L170.28 1.86L170.28 1.86Q163.87 1.86 160.10 0.46L160.10 0.46L160.10 0.46Q156.33-0.93 153.82-3.53L153.82-3.53L153.82-3.53Q148.89-8.46 148.89-17.48L148.89-17.48L148.89-17.48Q148.89-31.53 156.52-40.08L156.52-40.08L156.52-40.08Q164.70-49.29 178.93-49.29L178.93-49.29L178.93-49.29Q187.77-49.29 192.14-45.57L192.14-45.57L192.14-45.57Q195.39-42.78 195.39-38.22L195.39-38.22L195.39-38.22Q195.39-21.86 167.12-21.86L167.12-21.86L167.12-21.86Q166.75-19.44 166.75-17.39L166.75-17.39L166.75-17.39Q166.75-13.11 168.66-11.49L168.66-11.49L168.66-11.49Q170.56-9.86 174.10-9.86L174.10-9.86L174.10-9.86Q177.63-9.86 181.40-11.49L181.40-11.49L181.40-11.49Q185.16-13.11 186.74-15.72ZM167.77-25.85L167.77-25.85L167.77-25.85Q174.38-25.85 178.19-29.95L178.19-29.95L178.19-29.95Q182.00-33.85 182.00-40.08L182.00-40.08L182.00-40.08Q182.00-42.22 181.21-43.38L181.21-43.38L181.21-43.38Q180.42-44.55 178.84-44.55L178.84-44.55L178.84-44.55Q177.26-44.55 175.91-43.94L175.91-43.94L175.91-43.94Q174.56-43.34 173.17-41.29L173.17-41.29L173.17-41.29Q169.72-36.64 167.77-25.85ZM202.60-2.79L202.60-2.79L202.60-2.79Q200.41-5.21 199.44-9.02L199.44-9.02L199.44-9.02Q198.46-12.83 198.46-19.07L198.46-19.07L198.46-19.07Q198.46-25.30 200.60-30.97L200.60-30.97L200.60-30.97Q202.74-36.64 206.65-40.73L206.65-40.73L206.65-40.73Q214.64-49.29 227.85-49.29L227.85-49.29L227.85-49.29Q232.59-49.29 236.03-47.71L236.03-47.71L251.94-49.29L245.06-13.02L245.06-13.02Q244.78-11.90 244.78-9.86L244.78-9.86L244.78-9.86Q244.78-7.81 246.03-6.51L246.03-6.51L246.03-6.51Q247.29-5.21 249.15-5.02L249.15-5.02L249.15-5.02Q248.22-1.86 244.82 0L244.82 0L244.82 0Q241.43 1.86 237.61 1.86L237.61 1.86L237.61 1.86Q233.80 1.86 231.24 0.42L231.24 0.42L231.24 0.42Q228.69-1.02 227.94-3.44L227.94-3.44L227.94-3.44Q226.45-1.12 223.29 0.37L223.29 0.37L223.29 0.37Q220.13 1.86 215.90 1.86L215.90 1.86L215.90 1.86Q211.67 1.86 208.23 0.74L208.23 0.74L208.23 0.74Q204.79-0.37 202.60-2.79ZM222.22-40.55L222.22-40.55L222.22-40.55Q221.15-38.87 220.22-36.04L220.22-36.04L220.22-36.04Q219.29-33.20 217.76-25.62L217.76-25.62L217.76-25.62Q216.22-18.04 216.22-12.65L216.22-12.65L216.22-12.65Q216.22-7.25 217.06-5.67L217.06-5.67L217.06-5.67Q217.90-4.09 219.39-4.09L219.39-4.09L219.39-4.09Q222.36-4.09 224.55-6.93L224.55-6.93L224.55-6.93Q226.73-9.77 227.57-14.79L227.57-14.79L232.50-42.04L232.50-42.04Q230.55-43.71 228.27-43.71L228.27-43.71L228.27-43.71Q225.99-43.71 224.64-42.97L224.64-42.97L224.64-42.97Q223.29-42.22 222.22-40.55ZM284.77-32.64L284.77-32.64L284.77-32.64Q286.07-36.08 286.07-39.06L286.07-39.06L286.07-39.06Q286.07-44.55 281.60-44.55L281.60-44.55L281.60-44.55Q279.28-44.55 277.37-42.45L277.37-42.45L277.37-42.45Q275.47-40.36 275.47-37.76L275.47-37.76L275.47-37.76Q275.47-35.90 276.95-34.41L276.95-34.41L276.95-34.41Q279.09-32.36 284.58-29.02L284.58-29.02L284.58-29.02Q290.07-25.67 292.16-22.92L292.16-22.92L292.16-22.92Q294.25-20.18 294.25-16.41L294.25-16.41L294.25-16.41Q294.25-12.65 292.44-9.21L292.44-9.21L292.44-9.21Q290.63-5.77 287.37-3.35L287.37-3.35L287.37-3.35Q280.39 1.86 269.24 1.86L269.24 1.86L269.24 1.86Q263.19 1.86 258.54-1.30L258.54-1.30L258.54-1.30Q253.89-4.37 253.89-8.00L253.89-8.00L253.89-8.00Q253.89-11.63 256.54-13.76L256.54-13.76L256.54-13.76Q259.19-15.90 263.10-15.90L263.10-15.90L263.10-15.90Q267.00-15.90 269.42-14.41L269.42-14.41L269.42-14.41Q268.21-11.35 268.21-9.30L268.21-9.30L268.21-9.30Q268.21-3.16 273.42-3.16L273.42-3.16L273.42-3.16Q275.65-3.16 277.14-4.56L277.14-4.56L277.14-4.56Q278.63-5.95 278.63-8.37L278.63-8.37L278.63-8.37Q278.63-13.11 270.63-18.14L270.63-18.14L270.63-18.14Q264.12-22.41 262.63-24.09L262.63-24.09L262.63-24.09Q260.12-27.06 260.12-30.78L260.12-30.78L260.12-30.78Q260.12-34.50 261.89-38.04L261.89-38.04L261.89-38.04Q263.65-41.57 266.91-44.08L266.91-44.08L266.91-44.08Q273.70-49.29 285.51-49.29L285.51-49.29L285.51-49.29Q291.56-49.29 295.14-46.87L295.14-46.87L295.14-46.87Q298.72-44.45 298.72-40.36L298.72-40.36L298.72-40.36Q298.72-36.27 296.25-33.95L296.25-33.95L296.25-33.95Q293.79-31.62 289.32-31.62L289.32-31.62L289.32-31.62Q286.25-31.62 284.77-32.64ZM348.94-10.32L348.94-10.32L348.94-10.32Q348.94-6.23 353.12-5.02L353.12-5.02L353.12-5.02Q352.10-1.58 348.10 0.28L348.10 0.28L348.10 0.28Q344.75 1.86 341.08 1.86L341.08 1.86L341.08 1.86Q337.40 1.86 335.50 0.88L335.50 0.88L335.50 0.88Q333.59-0.09 332.57-1.67L332.57-1.67L332.57-1.67Q330.89-4.09 330.89-8.65L330.89-8.65L330.89-8.65Q330.89-11.35 332.38-18.79L332.38-18.79L333.68-25.85L333.68-25.85Q335.26-33.95 335.26-36.92L335.26-36.92L335.26-36.92Q335.26-42.13 332.38-42.13L332.38-42.13L332.38-42.13Q328.75-42.13 326.43-36.83L326.43-36.83L326.43-36.83Q325.50-34.78 324.85-31.71L324.85-31.71L318.52 0L299.83 1.86L312.94-65.10L331.64-66.96L330.89-63.24L330.89-63.24Q328.29-48.92 326.06-44.08L326.06-44.08L326.06-44.08Q331.27-49.29 340.84-49.29L340.84-49.29L340.84-49.29Q350.98-49.29 352.84-42.59L352.84-42.59L352.84-42.59Q353.49-40.45 353.49-38.59L353.49-38.59L353.49-38.59Q353.49-36.73 353.35-35.29L353.35-35.29L353.35-35.29Q353.21-33.85 352.75-31.25L352.75-31.25L351.54-24.55L349.40-14.04L349.40-14.04Q348.94-11.90 348.94-10.32ZM403.99-6.37L403.99-6.37L403.99-6.37Q400.09-2.42 394.74-0.28L394.74-0.28L394.74-0.28Q389.39 1.86 384.09 1.86L384.09 1.86L384.09 1.86Q378.79 1.86 376.93 0.93L376.93 0.93L374.05 16.74L355.17 18.60L368.00-47.43L383.16-49.01L381.95-42.59L381.95-42.59Q385.86-49.20 393.95-49.20L393.95-49.20L393.95-49.20Q403.06-49.20 407.90-43.34L407.90-43.34L407.90-43.34Q412.18-38.04 412.18-29.95L412.18-29.95L412.18-29.95Q412.18-21.86 410.04-16.09L410.04-16.09L410.04-16.09Q407.90-10.32 403.99-6.37ZM382.97-32.46L378.04-5.21L378.04-5.21Q380.00-3.53 382.42-3.53L382.42-3.53L382.42-3.53Q384.83-3.53 386.23-4.46L386.23-4.46L386.23-4.46Q387.62-5.39 388.65-7.25L388.65-7.25L388.65-7.25Q391.44-12.28 393.67-27.53L393.67-27.53L393.67-27.53Q394.32-31.99 394.32-36.36L394.32-36.36L394.32-36.36Q394.32-40.73 393.34-42.13L393.34-42.13L393.34-42.13Q392.37-43.52 390.51-43.52L390.51-43.52L390.51-43.52Q384.83-43.52 382.97-32.46L382.97-32.46ZM438.03 1.86L438.03 1.86L438.03 1.86Q417.57 1.86 417.57-17.39L417.57-17.39L417.57-17.39Q417.57-31.06 425.10-39.90L425.10-39.90L425.10-39.90Q433.10-49.29 446.96-49.29L446.96-49.29L446.96-49.29Q457.00-49.29 462.12-44.64L462.12-44.64L462.12-44.64Q467.23-39.99 467.23-30.23L467.23-30.23L467.23-30.23Q467.23-15.35 459.23-6.70L459.23-6.70L459.23-6.70Q451.42 1.86 438.03 1.86ZM440.45-38.59L440.45-38.59L440.45-38.59Q439.33-36.08 438.45-32.32L438.45-32.32L438.45-32.32Q437.56-28.55 436.45-22.60L436.45-22.60L436.45-22.60Q435.33-16.65 435.33-9.30L435.33-9.30L435.33-9.30Q435.33-6.88 436.12-5.30L436.12-5.30L436.12-5.30Q436.91-3.72 439.05-3.72L439.05-3.72L439.05-3.72Q441.19-3.72 442.54-4.74L442.54-4.74L442.54-4.74Q443.89-5.77 444.91-8.18L444.91-8.18L444.91-8.18Q446.77-12.46 448.26-20.41L448.26-20.41L448.26-20.41Q449.75-28.36 449.89-31.81L449.89-31.81L449.89-31.81Q450.03-35.25 450.03-37.80L450.03-37.80L450.03-37.80Q450.03-40.36 449.28-42.04L449.28-42.04L449.28-42.04Q448.54-43.71 446.45-43.71L446.45-43.71L446.45-43.71Q444.35-43.71 442.96-42.41L442.96-42.41L442.96-42.41Q441.56-41.11 440.45-38.59ZM500.53-32.64L500.53-32.64L500.53-32.64Q501.83-36.08 501.83-39.06L501.83-39.06L501.83-39.06Q501.83-44.55 497.36-44.55L497.36-44.55L497.36-44.55Q495.04-44.55 493.13-42.45L493.13-42.45L493.13-42.45Q491.23-40.36 491.23-37.76L491.23-37.76L491.23-37.76Q491.23-35.90 492.71-34.41L492.71-34.41L492.71-34.41Q494.85-32.36 500.34-29.02L500.34-29.02L500.34-29.02Q505.83-25.67 507.92-22.92L507.92-22.92L507.92-22.92Q510.01-20.18 510.01-16.41L510.01-16.41L510.01-16.41Q510.01-12.65 508.20-9.21L508.20-9.21L508.20-9.21Q506.38-5.77 503.13-3.35L503.13-3.35L503.13-3.35Q496.15 1.86 485.00 1.86L485.00 1.86L485.00 1.86Q478.95 1.86 474.30-1.30L474.30-1.30L474.30-1.30Q469.65-4.37 469.65-8.00L469.65-8.00L469.65-8.00Q469.65-11.63 472.30-13.76L472.30-13.76L472.30-13.76Q474.95-15.90 478.86-15.90L478.86-15.90L478.86-15.90Q482.76-15.90 485.18-14.41L485.18-14.41L485.18-14.41Q483.97-11.35 483.97-9.30L483.97-9.30L483.97-9.30Q483.97-3.16 489.18-3.16L489.18-3.16L489.18-3.16Q491.41-3.16 492.90-4.56L492.90-4.56L492.90-4.56Q494.39-5.95 494.39-8.37L494.39-8.37L494.39-8.37Q494.39-13.11 486.39-18.14L486.39-18.14L486.39-18.14Q479.88-22.41 478.39-24.09L478.39-24.09L478.39-24.09Q475.88-27.06 475.88-30.78L475.88-30.78L475.88-30.78Q475.88-34.50 477.65-38.04L477.65-38.04L477.65-38.04Q479.41-41.57 482.67-44.08L482.67-44.08L482.67-44.08Q489.46-49.29 501.27-49.29L501.27-49.29L501.27-49.29Q507.31-49.29 510.90-46.87L510.90-46.87L510.90-46.87Q514.48-44.45 514.48-40.36L514.48-40.36L514.48-40.36Q514.48-36.27 512.01-33.95L512.01-33.95L512.01-33.95Q509.55-31.62 505.08-31.62L505.08-31.62L505.08-31.62Q502.01-31.62 500.53-32.64Z" fill="url(#editing-shadow-gradient2)"></path></g></g></g><style>text {
  font-size: 64px;
  font-family: Arial Black;
  dominant-baseline: central;
  text-anchor: middle;
}</style></svg>