<svg width="488.11249999999995px" height="118.39999999999999px" xmlns="http://www.w3.org/2000/svg" viewBox="5.943750000000023 15.800000000000004 488.11249999999995 118.39999999999999" style="background: rgba(89, 104, 134, 0);" preserveAspectRatio="xMidYMid"><defs><filter id="editing-hover" x="-100%" y="-100%" width="300%" height="300%"><feFlood flood-color="#052b4a" result="flood"></feFlood><feComposite operator="in" in2="SourceAlpha" in="flood" result="shadow"></feComposite><feOffset dx="-2" dy="0.1" in="SourceGraphic" result="offset-1"></feOffset><feOffset dx="2" dy="-0.1" in="shadow" result="offset-2"></feOffset><feMerge><feMergeNode in="offset-2"></feMergeNode><feMergeNode in="offset-1"></feMergeNode></feMerge></filter></defs><g filter="url(#editing-hover)"><g transform="translate(77.9199755191803, 103.52000045776367)"><path d="M20.96-2.60L20.96-2.60L20.96-2.60Q17.98 1.24 10.60 1.24L10.60 1.24L10.60 1.24Q6.76 1.24 3.97-1.08L3.97-1.08L3.97-1.08Q1.18-3.41 1.18-6.76L1.18-6.76L1.18-6.76Q1.18-8.62 1.36-9.55L1.36-9.55L5.52-31.62L18.10-32.86L13.58-8.93L13.58-8.93Q13.33-7.56 13.33-6.76L13.33-6.76L13.33-6.76Q13.33-3.16 15.50-3.16L15.50-3.16L15.50-3.16Q17.92-3.16 19.65-6.45L19.65-6.45L19.65-6.45Q20.21-7.50 20.46-8.87L20.46-8.87L24.86-31.62L37.08-32.86L32.49-8.68L32.49-8.68Q32.30-7.75 32.30-6.76L32.30-6.76L32.30-6.76Q32.30-5.77 32.86-4.68L32.86-4.68L32.86-4.68Q33.42-3.60 35.22-3.35L35.22-3.35L35.22-3.35Q34.84-1.86 33.54-0.87L33.54-0.87L33.54-0.87Q30.81 1.24 27.87 1.24L27.87 1.24L27.87 1.24Q24.92 1.24 23.19 0.19L23.19 0.19L23.19 0.19Q21.45-0.87 20.96-2.60ZM66.65 1.24L66.65 1.24L66.65 1.24Q59.15 1.24 59.15-4.59L59.15-4.59L59.15-4.59Q59.21-6.20 59.71-8.93L59.71-8.93L60.82-14.63L60.82-14.63Q62.50-22.69 62.50-24.49L62.50-24.49L62.50-24.49Q62.50-28.09 60.39-28.09L60.39-28.09L60.39-28.09Q56.85-28.09 54.99-18.85L54.99-18.85L51.34 0L38.87 1.24L45.32-31.68L55.49-32.86L54.50-26.78L54.50-26.78Q57.41-32.86 66.34-32.86L66.34-32.86L66.34-32.86Q70.68-32.86 72.51-31.03L72.51-31.03L72.51-31.03Q74.34-29.20 74.34-25.11L74.34-25.11L74.34-25.11Q74.34-21.27 72.35-12.28L72.35-12.28L72.35-12.28Q71.42-8.25 71.42-6.73L71.42-6.73L71.42-6.73Q71.42-5.21 72.26-4.34L72.26-4.34L72.26-4.34Q73.10-3.47 74.34-3.35L74.34-3.35L74.34-3.35Q73.72-1.24 71.58 0L71.58 0L71.58 0Q69.44 1.24 66.65 1.24ZM94.12-3.41L94.12-3.41L94.12-3.41Q92.19 1.24 86.06 1.24L86.06 1.24L86.06 1.24Q82.96 1.24 80.97-0.93L80.97-0.93L80.97-0.93Q79.36-2.73 79.36-4.77L79.36-4.77L79.36-4.77Q79.36-9.42 81.53-19.59L81.53-19.59L86.06-43.40L98.64-44.64L92.63-13.27L92.63-13.27Q91.57-8.68 91.57-7.07L91.57-7.07L91.57-7.07Q91.57-3.53 94.12-3.41ZM124.50-10.48L124.50-10.48L124.50-10.48Q126.05-9.42 126.05-7.10L126.05-7.10L126.05-7.10Q126.05-4.77 124.87-3.29L124.87-3.29L124.87-3.29Q123.69-1.80 121.77-0.81L121.77-0.81L121.77-0.81Q117.80 1.24 113.52 1.24L113.52 1.24L113.52 1.24Q109.24 1.24 106.73 0.31L106.73 0.31L106.73 0.31Q104.22-0.62 102.55-2.36L102.55-2.36L102.55-2.36Q99.26-5.64 99.26-11.66L99.26-11.66L99.26-11.66Q99.26-21.02 104.35-26.72L104.35-26.72L104.35-26.72Q109.80-32.86 119.29-32.86L119.29-32.86L119.29-32.86Q125.18-32.86 128.09-30.38L128.09-30.38L128.09-30.38Q130.26-28.52 130.26-25.48L130.26-25.48L130.26-25.48Q130.26-14.57 111.41-14.57L111.41-14.57L111.41-14.57Q111.17-12.96 111.17-11.59L111.17-11.59L111.17-11.59Q111.17-8.74 112.44-7.66L112.44-7.66L112.44-7.66Q113.71-6.57 116.06-6.57L116.06-6.57L116.06-6.57Q118.42-6.57 120.93-7.66L120.93-7.66L120.93-7.66Q123.44-8.74 124.50-10.48ZM111.85-17.24L111.85-17.24L111.85-17.24Q116.25-17.24 118.79-19.96L118.79-19.96L118.79-19.96Q121.33-22.57 121.33-26.72L121.33-26.72L121.33-26.72Q121.33-28.15 120.81-28.92L120.81-28.92L120.81-28.92Q120.28-29.70 119.23-29.70L119.23-29.70L119.23-29.70Q118.17-29.70 117.27-29.29L117.27-29.29L117.27-29.29Q116.37-28.89 115.44-27.53L115.44-27.53L115.44-27.53Q113.15-24.43 111.85-17.24ZM135.07-1.86L135.07-1.86L135.07-1.86Q133.61-3.47 132.96-6.01L132.96-6.01L132.96-6.01Q132.31-8.56 132.31-12.71L132.31-12.71L132.31-12.71Q132.31-16.86 133.73-20.65L133.73-20.65L133.73-20.65Q135.16-24.43 137.76-27.16L137.76-27.16L137.76-27.16Q143.10-32.86 151.90-32.86L151.90-32.86L151.90-32.86Q155.06-32.86 157.36-31.81L157.36-31.81L167.96-32.86L163.37-8.68L163.37-8.68Q163.18-7.94 163.18-6.57L163.18-6.57L163.18-6.57Q163.18-5.21 164.02-4.34L164.02-4.34L164.02-4.34Q164.86-3.47 166.10-3.35L166.10-3.35L166.10-3.35Q165.48-1.24 163.22 0L163.22 0L163.22 0Q160.95 1.24 158.41 1.24L158.41 1.24L158.41 1.24Q155.87 1.24 154.16 0.28L154.16 0.28L154.16 0.28Q152.46-0.68 151.96-2.29L151.96-2.29L151.96-2.29Q150.97-0.74 148.86 0.25L148.86 0.25L148.86 0.25Q146.75 1.24 143.93 1.24L143.93 1.24L143.93 1.24Q141.11 1.24 138.82 0.50L138.82 0.50L138.82 0.50Q136.52-0.25 135.07-1.86ZM148.15-27.03L148.15-27.03L148.15-27.03Q147.44-25.92 146.82-24.02L146.82-24.02L146.82-24.02Q146.20-22.13 145.17-17.08L145.17-17.08L145.17-17.08Q144.15-12.03 144.15-8.43L144.15-8.43L144.15-8.43Q144.15-4.84 144.71-3.78L144.71-3.78L144.71-3.78Q145.27-2.73 146.26-2.73L146.26-2.73L146.26-2.73Q148.24-2.73 149.70-4.62L149.70-4.62L149.70-4.62Q151.16-6.51 151.71-9.86L151.71-9.86L155-28.02L155-28.02Q153.70-29.14 152.18-29.14L152.18-29.14L152.18-29.14Q150.66-29.14 149.76-28.64L149.76-28.64L149.76-28.64Q148.86-28.15 148.15-27.03ZM189.84-21.76L189.84-21.76L189.84-21.76Q190.71-24.06 190.71-26.04L190.71-26.04L190.71-26.04Q190.71-29.70 187.74-29.70L187.74-29.70L187.74-29.70Q186.19-29.70 184.92-28.30L184.92-28.30L184.92-28.30Q183.64-26.91 183.64-25.17L183.64-25.17L183.64-25.17Q183.64-23.93 184.64-22.94L184.64-22.94L184.64-22.94Q186.06-21.58 189.72-19.34L189.72-19.34L189.72-19.34Q193.38-17.11 194.77-15.28L194.77-15.28L194.77-15.28Q196.17-13.45 196.17-10.94L196.17-10.94L196.17-10.94Q196.17-8.43 194.96-6.14L194.96-6.14L194.96-6.14Q193.75-3.84 191.58-2.23L191.58-2.23L191.58-2.23Q186.93 1.24 179.49 1.24L179.49 1.24L179.49 1.24Q175.46 1.24 172.36-0.87L172.36-0.87L172.36-0.87Q169.26-2.91 169.26-5.33L169.26-5.33L169.26-5.33Q169.26-7.75 171.03-9.18L171.03-9.18L171.03-9.18Q172.79-10.60 175.40-10.60L175.40-10.60L175.40-10.60Q178.00-10.60 179.61-9.61L179.61-9.61L179.61-9.61Q178.81-7.56 178.81-6.20L178.81-6.20L178.81-6.20Q178.81-2.11 182.28-2.11L182.28-2.11L182.28-2.11Q183.77-2.11 184.76-3.04L184.76-3.04L184.76-3.04Q185.75-3.97 185.75-5.58L185.75-5.58L185.75-5.58Q185.75-8.74 180.42-12.09L180.42-12.09L180.42-12.09Q176.08-14.94 175.09-16.06L175.09-16.06L175.09-16.06Q173.41-18.04 173.41-20.52L173.41-20.52L173.41-20.52Q173.41-23.00 174.59-25.36L174.59-25.36L174.59-25.36Q175.77-27.71 177.94-29.39L177.94-29.39L177.94-29.39Q182.47-32.86 190.34-32.86L190.34-32.86L190.34-32.86Q194.37-32.86 196.76-31.25L196.76-31.25L196.76-31.25Q199.14-29.64 199.14-26.91L199.14-26.91L199.14-26.91Q199.14-24.18 197.50-22.63L197.50-22.63L197.50-22.63Q195.86-21.08 192.88-21.08L192.88-21.08L192.88-21.08Q190.84-21.08 189.84-21.76ZM232.62-6.88L232.62-6.88L232.62-6.88Q232.62-4.15 235.41-3.35L235.41-3.35L235.41-3.35Q234.73-1.05 232.07 0.19L232.07 0.19L232.07 0.19Q229.83 1.24 227.39 1.24L227.39 1.24L227.39 1.24Q224.94 1.24 223.67 0.59L223.67 0.59L223.67 0.59Q222.39-0.06 221.71-1.12L221.71-1.12L221.71-1.12Q220.60-2.73 220.60-5.77L220.60-5.77L220.60-5.77Q220.60-7.56 221.59-12.52L221.59-12.52L222.46-17.24L222.46-17.24Q223.51-22.63 223.51-24.61L223.51-24.61L223.51-24.61Q223.51-28.09 221.59-28.09L221.59-28.09L221.59-28.09Q219.17-28.09 217.62-24.55L217.62-24.55L217.62-24.55Q217-23.19 216.57-21.14L216.57-21.14L212.35 0L199.89 1.24L208.63-43.40L221.09-44.64L220.60-42.16L220.60-42.16Q218.86-32.61 217.37-29.39L217.37-29.39L217.37-29.39Q220.84-32.86 227.23-32.86L227.23-32.86L227.23-32.86Q233.99-32.86 235.23-28.40L235.23-28.40L235.23-28.40Q235.66-26.97 235.66-25.73L235.66-25.73L235.66-25.73Q235.66-24.49 235.57-23.53L235.57-23.53L235.57-23.53Q235.48-22.57 235.17-20.83L235.17-20.83L234.36-16.37L232.93-9.36L232.93-9.36Q232.62-7.94 232.62-6.88ZM269.33-4.25L269.33-4.25L269.33-4.25Q266.72-1.61 263.16-0.19L263.16-0.19L263.16-0.19Q259.59 1.24 256.06 1.24L256.06 1.24L256.06 1.24Q252.53 1.24 251.29 0.62L251.29 0.62L249.36 11.16L236.78 12.40L245.33-31.62L255.44-32.67L254.63-28.40L254.63-28.40Q257.24-32.80 262.63-32.80L262.63-32.80L262.63-32.80Q268.71-32.80 271.93-28.89L271.93-28.89L271.93-28.89Q274.78-25.36 274.78-19.96L274.78-19.96L274.78-19.96Q274.78-14.57 273.36-10.73L273.36-10.73L273.36-10.73Q271.93-6.88 269.33-4.25ZM255.32-21.64L252.03-3.47L252.03-3.47Q253.33-2.36 254.94-2.36L254.94-2.36L254.94-2.36Q256.56-2.36 257.49-2.98L257.49-2.98L257.49-2.98Q258.42-3.60 259.10-4.84L259.10-4.84L259.10-4.84Q260.96-8.18 262.45-18.35L262.45-18.35L262.45-18.35Q262.88-21.33 262.88-24.24L262.88-24.24L262.88-24.24Q262.88-27.16 262.23-28.09L262.23-28.09L262.23-28.09Q261.58-29.02 260.34-29.02L260.34-29.02L260.34-29.02Q256.56-29.02 255.32-21.64L255.32-21.64ZM292.02 1.24L292.02 1.24L292.02 1.24Q278.38 1.24 278.38-11.59L278.38-11.59L278.38-11.59Q278.38-20.71 283.40-26.60L283.40-26.60L283.40-26.60Q288.73-32.86 297.97-32.86L297.97-32.86L297.97-32.86Q304.67-32.86 308.08-29.76L308.08-29.76L308.08-29.76Q311.49-26.66 311.49-20.15L311.49-20.15L311.49-20.15Q311.49-10.23 306.16-4.46L306.16-4.46L306.16-4.46Q300.95 1.24 292.02 1.24ZM293.63-25.73L293.63-25.73L293.63-25.73Q292.89-24.06 292.30-21.54L292.30-21.54L292.30-21.54Q291.71-19.03 290.97-15.07L290.97-15.07L290.97-15.07Q290.22-11.10 290.22-6.20L290.22-6.20L290.22-6.20Q290.22-4.59 290.75-3.53L290.75-3.53L290.75-3.53Q291.28-2.48 292.70-2.48L292.70-2.48L292.70-2.48Q294.13-2.48 295.03-3.16L295.03-3.16L295.03-3.16Q295.93-3.84 296.61-5.46L296.61-5.46L296.61-5.46Q297.85-8.31 298.84-13.61L298.84-13.61L298.84-13.61Q299.83-18.91 299.93-21.20L299.93-21.20L299.93-21.20Q300.02-23.50 300.02-25.20L300.02-25.20L300.02-25.20Q300.02-26.91 299.52-28.02L299.52-28.02L299.52-28.02Q299.03-29.14 297.63-29.14L297.63-29.14L297.63-29.14Q296.24-29.14 295.31-28.27L295.31-28.27L295.31-28.27Q294.38-27.40 293.63-25.73ZM333.68-21.76L333.68-21.76L333.68-21.76Q334.55-24.06 334.55-26.04L334.55-26.04L334.55-26.04Q334.55-29.70 331.58-29.70L331.58-29.70L331.58-29.70Q330.03-29.70 328.75-28.30L328.75-28.30L328.75-28.30Q327.48-26.91 327.48-25.17L327.48-25.17L327.48-25.17Q327.48-23.93 328.48-22.94L328.48-22.94L328.48-22.94Q329.90-21.58 333.56-19.34L333.56-19.34L333.56-19.34Q337.22-17.11 338.61-15.28L338.61-15.28L338.61-15.28Q340.01-13.45 340.01-10.94L340.01-10.94L340.01-10.94Q340.01-8.43 338.80-6.14L338.80-6.14L338.80-6.14Q337.59-3.84 335.42-2.23L335.42-2.23L335.42-2.23Q330.77 1.24 323.33 1.24L323.33 1.24L323.33 1.24Q319.30 1.24 316.20-0.87L316.20-0.87L316.20-0.87Q313.10-2.91 313.10-5.33L313.10-5.33L313.10-5.33Q313.10-7.75 314.87-9.18L314.87-9.18L314.87-9.18Q316.63-10.60 319.24-10.60L319.24-10.60L319.24-10.60Q321.84-10.60 323.45-9.61L323.45-9.61L323.45-9.61Q322.65-7.56 322.65-6.20L322.65-6.20L322.65-6.20Q322.65-2.11 326.12-2.11L326.12-2.11L326.12-2.11Q327.61-2.11 328.60-3.04L328.60-3.04L328.60-3.04Q329.59-3.97 329.59-5.58L329.59-5.58L329.59-5.58Q329.59-8.74 324.26-12.09L324.26-12.09L324.26-12.09Q319.92-14.94 318.93-16.06L318.93-16.06L318.93-16.06Q317.25-18.04 317.25-20.52L317.25-20.52L317.25-20.52Q317.25-23.00 318.43-25.36L318.43-25.36L318.43-25.36Q319.61-27.71 321.78-29.39L321.78-29.39L321.78-29.39Q326.31-32.86 334.18-32.86L334.18-32.86L334.18-32.86Q338.21-32.86 340.60-31.25L340.60-31.25L340.60-31.25Q342.98-29.64 342.98-26.91L342.98-26.91L342.98-26.91Q342.98-24.18 341.34-22.63L341.34-22.63L341.34-22.63Q339.70-21.08 336.72-21.08L336.72-21.08L336.72-21.08Q334.68-21.08 333.68-21.76Z" fill="#ffd5af"></path></g></g><style>text {
  font-size: 64px;
  font-family: Arial Black;
  dominant-baseline: central;
  text-anchor: middle;
}</style></svg>