<svg width="24" height="24" viewBox="0 0 24 24" fill="none" xmlns="http://www.w3.org/2000/svg">
<path d="M20.4727 4.125H18.8555V3.52734C18.8555 3.23611 18.6194 3 18.3281 3C18.0369 3 17.8008 3.23611 17.8008 3.52734V4.125H15.6914V3.52734C15.6914 3.23611 15.4553 3 15.1641 3C14.8728 3 14.6367 3.23611 14.6367 3.52734V4.125H12.5273V3.52734C12.5273 3.23611 12.2912 3 12 3C11.7088 3 11.4727 3.23611 11.4727 3.52734V4.125H9.36328V3.52734C9.36328 3.23611 9.12717 3 8.83594 3C8.5447 3 8.30859 3.23611 8.30859 3.52734V4.125H6.19922V3.52734C6.19922 3.23611 5.96311 3 5.67188 3C5.38064 3 5.14453 3.23611 5.14453 3.52734V4.125H3.52734C3.23611 4.125 3 4.36111 3 4.65234V20.4727C3 20.7639 3.23611 21 3.52734 21H20.4727C20.7639 21 21 20.7639 21 20.4727V4.65234C21 4.36111 20.7639 4.125 20.4727 4.125ZM5.14453 5.17969V5.70703C5.14453 5.99827 5.38064 6.23438 5.67188 6.23438C5.96311 6.23438 6.19922 5.99827 6.19922 5.70703V5.17969H8.30859V5.70703C8.30859 5.99827 8.5447 6.23438 8.83594 6.23438C9.12717 6.23438 9.36328 5.99827 9.36328 5.70703V5.17969H11.4727V5.70703C11.4727 5.99827 11.7088 6.23438 12 6.23438C12.2912 6.23438 12.5273 5.99827 12.5273 5.70703V5.17969H14.6367V5.70703C14.6367 5.99827 14.8728 6.23438 15.1641 6.23438C15.4553 6.23438 15.6914 5.99827 15.6914 5.70703V5.17969H17.8008V5.70703C17.8008 5.99827 18.0369 6.23438 18.3281 6.23438C18.6194 6.23438 18.8555 5.99827 18.8555 5.70703V5.17969H19.9453V7.28906H4.05469V5.17969H5.14453ZM4.05469 19.9453V8.34375H19.9453V19.9453H4.05469Z" fill="white"/>
<path d="M8.83594 10.4531H6.72656C6.43533 10.4531 6.19922 10.6892 6.19922 10.9805V13.0898C6.19922 13.3811 6.43533 13.6172 6.72656 13.6172H8.83594C9.12717 13.6172 9.36328 13.3811 9.36328 13.0898V10.9805C9.36328 10.6892 9.12717 10.4531 8.83594 10.4531ZM8.30859 12.5625H7.25391V11.5078H8.30859V12.5625Z" fill="white"/>
<path d="M17.2734 10.4531H15.1641C14.8728 10.4531 14.6367 10.6892 14.6367 10.9805V13.0898C14.6367 13.3811 14.8728 13.6172 15.1641 13.6172H17.2734C17.5647 13.6172 17.8008 13.3811 17.8008 13.0898V10.9805C17.8008 10.6892 17.5647 10.4531 17.2734 10.4531ZM16.7461 12.5625H15.6914V11.5078H16.7461V12.5625Z" fill="white"/>
<path d="M13.0547 14.6367H10.9453C10.6541 14.6367 10.418 14.8728 10.418 15.1641V17.2734C10.418 17.5647 10.6541 17.8008 10.9453 17.8008H13.0547C13.3459 17.8008 13.582 17.5647 13.582 17.2734V15.1641C13.582 14.8728 13.3459 14.6367 13.0547 14.6367ZM12.5273 16.7461H11.4727V15.6914H12.5273V16.7461Z" fill="white"/>
<path d="M13.0547 10.4531H10.9453C10.6541 10.4531 10.418 10.6892 10.418 10.9805V13.0898C10.418 13.3811 10.6541 13.6172 10.9453 13.6172H13.0547C13.3459 13.6172 13.582 13.3811 13.582 13.0898V10.9805C13.582 10.6892 13.3459 10.4531 13.0547 10.4531ZM12.5273 12.5625H11.4727V11.5078H12.5273V12.5625Z" fill="white"/>
<path d="M17.2734 14.6367H15.1641C14.8728 14.6367 14.6367 14.8728 14.6367 15.1641V17.2734C14.6367 17.5647 14.8728 17.8008 15.1641 17.8008H17.2734C17.5647 17.8008 17.8008 17.5647 17.8008 17.2734V15.1641C17.8008 14.8728 17.5647 14.6367 17.2734 14.6367ZM16.7461 16.7461H15.6914V15.6914H16.7461V16.7461Z" fill="white"/>
<path d="M9.1686 15.1346C8.94262 14.9508 8.61049 14.9851 8.42677 15.2111L7.35457 16.5299L7.06095 16.2891C6.83574 16.1043 6.50348 16.1373 6.3188 16.3625C6.13412 16.5877 6.16699 16.9199 6.39221 17.1046L7.09533 17.6812C7.32167 17.8668 7.65509 17.8322 7.83889 17.6061L9.24514 15.8764C9.42886 15.6504 9.39459 15.3183 9.1686 15.1346Z" fill="white"/>
</svg>
