<svg width="24" height="24" viewBox="0 0 24 24" fill="none" xmlns="http://www.w3.org/2000/svg">
<path d="M18.1877 12.5624C18.0385 12.5624 18.325 12.4695 14.2645 14.0312C11.9767 9.90931 11.4411 3.5826 11.4359 3.51714C11.3932 2.98737 10.7026 2.80712 10.4071 3.2503L9.59414 4.46978L8.37463 3.65678C8.05091 3.44103 7.61107 3.61171 7.51692 3.98842L7.14802 5.46408L6.12465 4.78183C5.80093 4.56607 5.36109 4.73676 5.26694 5.11346L4.89804 6.58912L3.87463 5.90684C3.48534 5.64735 2.96552 5.95071 3.0018 6.41833C3.01312 6.56434 3.29107 10.0345 4.34643 13.5672C5.37522 17.0109 7.29867 21 10.8752 21C11.3274 21 11.776 20.8902 12.1745 20.6823L18.2402 18.1848C18.4838 18.0842 18.383 18.1273 18.5453 18.0592C20.1855 17.3839 20.1128 17.4318 20.2236 17.3157C21.9227 15.5344 20.6504 12.5624 18.1877 12.5624ZM11.6915 19.6648C11.4986 19.7441 11.4728 19.7518 11.4184 19.7861C11.2451 19.8452 11.0633 19.875 10.8752 19.875C6.55043 19.875 4.79549 11.8077 4.25147 7.51015L4.93812 7.96793C5.26184 8.18368 5.70168 8.013 5.79583 7.63629L6.16473 6.16063L7.1881 6.84288C7.51115 7.05829 7.95149 6.88865 8.04582 6.51125L8.41471 5.03559L9.43809 5.71784C9.69652 5.89014 10.0458 5.82032 10.2181 5.56181L10.4938 5.14834C10.9161 8.17303 11.7568 11.7653 13.2047 14.4387L10.6732 15.4124C10.4202 15.5097 10.2726 15.7736 10.3221 16.04C10.3716 16.3066 10.6041 16.4999 10.8751 16.4999C11.8056 16.4999 12.5626 17.2569 12.5626 18.1874C12.5627 18.803 12.2296 19.3668 11.6915 19.6648ZM19.4837 16.4562C18.4512 16.8813 14.8733 18.3545 13.6021 18.8779C13.8822 17.7684 13.4655 16.5914 12.5202 15.9074C21.1798 12.5768 14.6788 15.0772 18.285 13.6902C19.6718 13.7695 20.3643 15.4033 19.4837 16.4562Z" fill="white"/>
<path d="M6.58407 10.2722L9.39659 9.14719C9.68502 9.03181 9.82533 8.70446 9.70994 8.416C9.5946 8.12758 9.26718 7.98724 8.97876 8.10265L6.16623 9.22766C5.87781 9.34305 5.7375 9.67039 5.85288 9.95885C5.96788 10.2464 6.29491 10.3879 6.58407 10.2722Z" fill="white"/>
<path d="M10.2724 10.6661C10.1571 10.3776 9.82968 10.2372 9.54126 10.3527L6.72873 11.4777C6.44031 11.5931 6.3 11.9204 6.41538 12.2089C6.50335 12.4288 6.7146 12.5626 6.93781 12.5626C7.08993 12.5626 6.90494 12.6189 9.95909 11.3972C10.2475 11.2819 10.3878 10.9545 10.2724 10.6661Z" fill="white"/>
<path d="M17.4605 9.58515C17.2412 9.80439 16.5542 9.80383 16.3355 9.58515C16.1158 9.36549 15.7597 9.36546 15.54 9.58515C15.3203 9.80484 15.3203 10.161 15.54 10.3806C15.7759 10.6166 16.114 10.7769 16.5002 10.8421V11.4374C16.5002 11.7481 16.7521 11.9999 17.0627 11.9999C17.3734 11.9999 17.6252 11.7481 17.6252 11.4374V10.759C19.1015 10.2572 19.0592 8.28053 17.7099 7.72161L16.8461 7.36382C16.3966 7.17767 16.3158 6.3749 17.2275 6.3749C17.5023 6.3749 17.708 6.45766 17.79 6.53968C18.0097 6.75934 18.3658 6.75937 18.5855 6.53968C18.8052 6.31999 18.8052 5.96385 18.5855 5.74419C18.3496 5.50826 18.0115 5.34791 17.6253 5.28273V4.68735C17.6253 4.37671 17.3734 4.12485 17.0628 4.12485C16.7521 4.12485 16.5003 4.37671 16.5003 4.68735V5.36573C15.0368 5.86316 15.0547 7.83945 16.4156 8.40315L17.2794 8.76094C17.6033 8.89513 17.722 9.32295 17.4605 9.58515Z" fill="white"/>
</svg>
