<svg width="24" height="24" viewBox="0 0 24 24" fill="none" xmlns="http://www.w3.org/2000/svg">
<path d="M10.0771 8.01859H11.1913V9.1329C11.1913 9.19817 11.2172 9.26077 11.2634 9.30692C11.3096 9.35307 11.3721 9.379 11.4374 9.379H12.5624C12.6277 9.379 12.6903 9.35307 12.7364 9.30692C12.7826 9.26077 12.8085 9.19817 12.8085 9.1329V8.01859H13.9227C13.9879 8.01859 14.0505 7.99266 14.0967 7.94651C14.1428 7.90036 14.1688 7.83776 14.1688 7.7725V6.6475C14.1688 6.58223 14.1428 6.51963 14.0967 6.47348C14.0505 6.42733 13.9879 6.4014 13.9227 6.4014H12.8085V5.28723C12.8085 5.22196 12.7826 5.15937 12.7364 5.11322C12.6903 5.06707 12.6277 5.04114 12.5624 5.04114H11.4374C11.3721 5.04114 11.3096 5.06707 11.2634 5.11322C11.2172 5.15937 11.1913 5.22196 11.1913 5.28723V6.4014H10.0771C10.0119 6.4014 9.94929 6.42733 9.90313 6.47348C9.85698 6.51963 9.83105 6.58223 9.83105 6.6475V7.7725C9.83105 7.83776 9.85698 7.90036 9.90313 7.94651C9.94929 7.99266 10.0119 8.01859 10.0771 8.01859ZM10.3232 6.89359H11.4374C11.5027 6.89359 11.5653 6.86766 11.6114 6.82151C11.6576 6.77536 11.6835 6.71277 11.6835 6.6475V5.53333H12.3163V6.64736C12.3163 6.67969 12.3227 6.7117 12.335 6.74158C12.3474 6.77145 12.3655 6.79859 12.3883 6.82146C12.4112 6.84433 12.4383 6.86247 12.4682 6.87484C12.4981 6.88722 12.5301 6.89359 12.5624 6.89359H13.6766V7.5264H12.5624C12.4971 7.5264 12.4346 7.55233 12.3884 7.59848C12.3422 7.64463 12.3163 7.70723 12.3163 7.7725V8.88681H11.6835V7.77236C11.6835 7.70711 11.6575 7.64455 11.6114 7.59843C11.5652 7.55231 11.5027 7.5264 11.4374 7.5264H10.3232V6.89359Z" fill="white" stroke="white" stroke-width="0.3"/>
<path d="M20.7539 10.42C20.8192 10.42 20.8818 10.394 20.9279 10.3479C20.9741 10.3017 21 10.2391 21 10.1739V8.67986C20.9996 8.35363 20.8699 8.04087 20.6392 7.8102C20.4085 7.57952 20.0958 7.44976 19.7695 7.44939H15.7617V4.24609C15.7617 4.18083 15.7358 4.11823 15.6896 4.07208C15.6435 4.02593 15.5809 4 15.5156 4H8.48438C8.41911 4 8.35651 4.02593 8.31036 4.07208C8.26421 4.11823 8.23828 4.18083 8.23828 4.24609V7.44883H4.23047C3.90415 7.4492 3.5913 7.57904 3.36061 7.80983C3.12992 8.04063 3.00022 8.35353 3 8.67986V10.1739C3 10.2391 3.02593 10.3017 3.07208 10.3479C3.11823 10.394 3.18083 10.42 3.24609 10.42H4.05469V18.7309H3.24609C3.18095 18.7309 3.11846 18.7567 3.07233 18.8027C3.0262 18.8487 3.00019 18.9111 3 18.9763V20.5232C3 20.5884 3.02593 20.651 3.07208 20.6972C3.11823 20.7433 3.18083 20.7692 3.24609 20.7692H20.7539C20.8192 20.7692 20.8818 20.7433 20.9279 20.6972C20.9741 20.651 21 20.5884 21 20.5232V18.9763C21 18.911 20.9741 18.8484 20.9279 18.8023C20.8818 18.7561 20.8192 18.7302 20.7539 18.7302H19.9453V10.4192L20.7539 10.42ZM19.7695 7.94158C19.9653 7.9418 20.1529 8.01966 20.2913 8.15806C20.4297 8.29647 20.5076 8.48412 20.5078 8.67986V9.92776H15.7617V7.94102L19.7695 7.94158ZM8.73047 4.49219H15.2695V9.92776H8.73047V4.49219ZM3.49219 8.67986C3.49226 8.48403 3.57005 8.29623 3.70847 8.1577C3.8469 8.01917 4.03464 7.94124 4.23047 7.94102H8.23828V9.92776H3.49219V8.67986ZM20.5078 20.2773H3.49219V19.2227H20.5078V20.2773ZM14.3278 13.4271V18.7302H12.2461V13.4271H14.3278ZM11.7543 18.7302H9.67308V13.4271H11.7543V18.7302ZM19.4535 18.7302H14.82V13.181C14.82 13.1157 14.794 13.0531 14.7479 13.007C14.7017 12.9608 14.6391 12.9349 14.5739 12.9349H9.42656C9.39424 12.9349 9.36223 12.9412 9.33236 12.9536C9.3025 12.9659 9.27536 12.9841 9.25251 13.0069C9.22965 13.0298 9.21152 13.0569 9.19916 13.0868C9.1868 13.1167 9.18045 13.1487 9.18047 13.181V18.7302H4.54688V10.4192H19.4531L19.4535 18.7302Z" fill="white" stroke="white" stroke-width="0.3"/>
</svg>
