<svg width="24" height="24" viewBox="0 0 24 24" fill="none" xmlns="http://www.w3.org/2000/svg">
<path d="M9.56757 11.2703H4.70295C4.24808 11.2703 3.82022 11.0927 3.49841 10.7699C3.18243 10.4566 3 10.0178 3 9.56757V4.7027C3 4.24784 3.17708 3.81997 3.49841 3.49792C3.81876 3.17684 4.24662 3 4.70295 3H9.56757C10.0236 3 10.4515 3.17684 10.7721 3.49792C11.0934 3.82022 11.2703 4.24784 11.2703 4.7027V9.56757C11.2703 10.0176 11.0881 10.4564 10.7704 10.7716C10.4498 11.0927 10.0222 11.2703 9.56757 11.2703ZM4.70295 3.97297C4.50689 3.97297 4.32373 4.04838 4.18727 4.18532C4.04887 4.32349 3.97297 4.50738 3.97297 4.7027V9.56757C3.97297 9.75997 4.05032 9.94703 4.18532 10.0808C4.32543 10.2212 4.50859 10.2973 4.70295 10.2973H9.56757C9.76192 10.2973 9.94508 10.2212 10.0835 10.0825C10.2199 9.94727 10.2973 9.75997 10.2973 9.56757V4.7027C10.2973 4.50738 10.2214 4.32349 10.0832 4.18532C9.94678 4.04838 9.76362 3.97297 9.56757 3.97297H4.70295Z" fill="white"/>
<path d="M9.56757 21H4.70295C4.24808 21 3.82022 20.8224 3.49841 20.4997C3.18243 20.1864 3 19.7475 3 19.2973V14.4324C3 13.9776 3.17708 13.5497 3.49841 13.2277C3.81876 12.9066 4.24662 12.7297 4.70295 12.7297H9.56757C10.0236 12.7297 10.4515 12.9066 10.7721 13.2277C11.0934 13.55 11.2703 13.9776 11.2703 14.4324V19.2973C11.2703 19.7473 11.0881 20.1861 10.7704 20.5014C10.4498 20.8224 10.0222 21 9.56757 21ZM4.70295 13.7027C4.50689 13.7027 4.32373 13.7781 4.18727 13.9151C4.04887 14.0532 3.97297 14.2371 3.97297 14.4324V19.2973C3.97297 19.4897 4.05032 19.6768 4.18532 19.8105C4.32543 19.9509 4.50859 20.027 4.70295 20.027H9.56757C9.76192 20.027 9.94508 19.9509 10.0835 19.8123C10.2199 19.677 10.2973 19.4897 10.2973 19.2973V14.4324C10.2973 14.2371 10.2214 14.0532 10.0832 13.9151C9.94678 13.7781 9.76362 13.7027 9.56757 13.7027H4.70295Z" fill="white"/>
<path d="M19.2973 11.2703H14.4327C13.9778 11.2703 13.55 11.0927 13.2281 10.7699C12.9122 10.4566 12.7297 10.0178 12.7297 9.56757V4.7027C12.7297 4.24784 12.9068 3.81997 13.2281 3.49792C13.5485 3.17684 13.9764 3 14.4327 3H19.2973C19.7534 3 20.1813 3.17684 20.5018 3.49792C20.8232 3.82022 21 4.24784 21 4.7027V9.56757C21 10.0176 20.8178 10.4564 20.5001 10.7716C20.1795 11.0927 19.7519 11.2703 19.2973 11.2703ZM14.4327 3.97297C14.2366 3.97297 14.0535 4.04838 13.917 4.18532C13.7786 4.32349 13.7027 4.50738 13.7027 4.7027V9.56757C13.7027 9.75997 13.7801 9.94703 13.9151 10.0808C14.0552 10.2212 14.2383 10.2973 14.4327 10.2973H19.2973C19.4917 10.2973 19.6748 10.2212 19.8132 10.0825C19.9497 9.94727 20.027 9.75997 20.027 9.56757V4.7027C20.027 4.50738 19.9511 4.32349 19.813 4.18532C19.6765 4.04838 19.4934 3.97297 19.2973 3.97297H14.4327Z" fill="white"/>
<path d="M19.2973 21H14.4327C13.9778 21 13.55 20.8224 13.2281 20.4997C12.9122 20.1864 12.7297 19.7475 12.7297 19.2973V14.4324C12.7297 13.9776 12.9068 13.5497 13.2281 13.2277C13.5485 12.9066 13.9764 12.7297 14.4327 12.7297H19.2973C19.7534 12.7297 20.1813 12.9066 20.5018 13.2277C20.8232 13.55 21 13.9776 21 14.4324V19.2973C21 19.7473 20.8178 20.1861 20.5001 20.5014C20.1795 20.8224 19.7519 21 19.2973 21ZM14.4327 13.7027C14.2366 13.7027 14.0535 13.7781 13.917 13.9151C13.7786 14.0532 13.7027 14.2371 13.7027 14.4324V19.2973C13.7027 19.4897 13.7801 19.6768 13.9151 19.8105C14.0552 19.9509 14.2383 20.027 14.4327 20.027H19.2973C19.4917 20.027 19.6748 19.9509 19.8132 19.8123C19.9497 19.677 20.027 19.4897 20.027 19.2973V14.4324C20.027 14.2371 19.9511 14.0532 19.813 13.9151C19.6765 13.7781 19.4934 13.7027 19.2973 13.7027H14.4327Z" fill="white"/>
</svg>
