<svg width="24" height="24" viewBox="0 0 24 24" fill="none" xmlns="http://www.w3.org/2000/svg">
<path d="M9.75 10.5C7.68225 10.5 6 8.81775 6 6.75C6 4.68225 7.68225 3 9.75 3C11.8177 3 13.5 4.68225 13.5 6.75C13.5 8.81775 11.8177 10.5 9.75 10.5ZM9.75 3.75C8.0955 3.75 6.75 5.0955 6.75 6.75C6.75 8.4045 8.0955 9.75 9.75 9.75C11.4045 9.75 12.75 8.4045 12.75 6.75C12.75 5.0955 11.4045 3.75 9.75 3.75Z" fill="white" stroke="white" stroke-width="0.5"/>
<path d="M10.125 18.75H3.375C3.168 18.75 3 18.582 3 18.375V15.375C3 13.5142 4.51425 12 6.375 12H13.125C13.332 12 13.5 12.168 13.5 12.375C13.5 12.582 13.332 12.75 13.125 12.75H6.375C4.9275 12.75 3.75 13.9275 3.75 15.375V18H10.125C10.332 18 10.5 18.168 10.5 18.375C10.5 18.582 10.332 18.75 10.125 18.75Z" fill="white" stroke="white" stroke-width="0.5"/>
<path d="M16.875 21H16.125C15.5047 21 15 20.4953 15 19.875V18H13.125C12.5047 18 12 17.4953 12 16.875V16.125C12 15.5047 12.5047 15 13.125 15H15V13.125C15 12.5047 15.5047 12 16.125 12H16.875C17.4953 12 18 12.5047 18 13.125V15H19.875C20.4953 15 21 15.5047 21 16.125V16.875C21 17.4953 20.4953 18 19.875 18H18V19.875C18 20.4953 17.4953 21 16.875 21ZM13.125 15.75C12.918 15.75 12.75 15.918 12.75 16.125V16.875C12.75 17.082 12.918 17.25 13.125 17.25H15.375C15.582 17.25 15.75 17.418 15.75 17.625V19.875C15.75 20.082 15.918 20.25 16.125 20.25H16.875C17.082 20.25 17.25 20.082 17.25 19.875V17.625C17.25 17.418 17.418 17.25 17.625 17.25H19.875C20.082 17.25 20.25 17.082 20.25 16.875V16.125C20.25 15.918 20.082 15.75 19.875 15.75H17.625C17.418 15.75 17.25 15.582 17.25 15.375V13.125C17.25 12.918 17.082 12.75 16.875 12.75H16.125C15.918 12.75 15.75 12.918 15.75 13.125V15.375C15.75 15.582 15.582 15.75 15.375 15.75H13.125Z" fill="white" stroke="white" stroke-width="0.5"/>
</svg>
