<svg width="24" height="24" viewBox="0 0 24 24" fill="none" xmlns="http://www.w3.org/2000/svg">
<path d="M8.92084 12.0011C10.8314 12.0011 12.382 10.4505 12.382 8.53995C12.382 6.62941 10.8314 5.07883 8.92084 5.07883C7.0103 5.07883 5.45972 6.62941 5.45972 8.53995C5.45972 10.4505 7.0103 12.0011 8.92084 12.0011ZM8.92084 6.46328C10.063 6.46328 10.9975 7.39778 10.9975 8.53995C10.9975 9.68212 10.063 10.6166 8.92084 10.6166C7.77867 10.6166 6.84417 9.68212 6.84417 8.53995C6.84417 7.39778 7.77867 6.46328 8.92084 6.46328Z" fill="white"/>
<path d="M14.888 15.3238C14.2234 13.254 11.9945 12.4372 11.3645 12.7764C10.4162 13.2817 9.5163 13.3855 8.92099 13.3855C7.84804 13.3855 7.00353 13.0533 6.47743 12.7764C5.88212 12.4579 3.63931 13.1779 2.94709 15.3653L2.05412 18.8333C1.92259 19.3317 2.03335 19.8578 2.35869 20.2732C2.71173 20.73 3.27935 21 3.88159 21H13.9673C14.5695 21 15.1372 20.73 15.4902 20.2732C15.8156 19.8578 15.9263 19.3317 15.7948 18.8333L14.888 15.3238ZM13.9673 19.6156H3.88159C3.61162 19.6156 3.33473 19.4217 3.39703 19.1725L4.27616 15.7391C4.53228 14.9292 5.18297 14.2993 6.04825 14.1054C6.71971 14.4308 7.7096 14.77 8.92099 14.77C9.62706 14.77 10.6792 14.6523 11.7937 14.1054C12.659 14.3062 13.3097 14.943 13.552 15.7045L14.4449 19.1725C14.5072 19.4148 14.2373 19.6156 13.9604 19.6156H13.9673Z" fill="white"/>
<path d="M13.0745 4.92654C13.4553 4.58043 13.9467 4.38661 14.459 4.38661C17.2071 4.38661 17.2071 8.53996 14.459 8.53996H14.4175C13.5314 8.53996 13.5176 9.92441 14.459 9.92441C16.3695 9.92441 17.9201 8.37383 17.9201 6.46328C17.9201 3.4521 14.3275 1.8946 12.1331 3.90205C11.4547 4.51813 12.3892 5.54262 13.0676 4.91962L13.0745 4.92654Z" fill="white"/>
<path d="M21.3325 16.7566L20.4257 13.254C19.8027 11.2257 17.5598 10.3535 16.9022 10.6997C16.1339 11.1081 15.4347 11.2396 14.9848 11.2811C14.071 11.3573 14.1887 12.7417 15.1024 12.6587C15.6424 12.6102 16.4454 12.4648 17.3383 12.0357C18.1967 12.2295 18.8612 12.8802 19.0966 13.6347L19.9965 17.1027C20.0588 17.345 19.7819 17.5458 19.505 17.5458H17.7883C16.8745 17.5458 16.8745 18.9302 17.7883 18.9302H19.505C20.7372 18.9302 21.6094 17.8642 21.3394 16.7635L21.3325 16.7566Z" fill="white"/>
</svg>
