<svg width="24" height="24" viewBox="0 0 24 24" fill="none" xmlns="http://www.w3.org/2000/svg">
<path d="M18.5236 4.2H17.8V3.6C17.8 3.44087 17.7368 3.28826 17.6243 3.17574C17.5117 3.06321 17.3591 3 17.2 3C17.0409 3 16.8883 3.06321 16.7757 3.17574C16.6632 3.28826 16.6 3.44087 16.6 3.6V4.2H13V3.6C13 3.44087 12.9368 3.28826 12.8243 3.17574C12.7117 3.06321 12.5591 3 12.4 3C12.2409 3 12.0883 3.06321 11.9757 3.17574C11.8632 3.28826 11.8 3.44087 11.8 3.6V4.2H8.2V3.6C8.2 3.44087 8.13679 3.28826 8.02426 3.17574C7.91174 3.06321 7.75913 3 7.6 3C7.44087 3 7.28826 3.06321 7.17574 3.17574C7.06321 3.28826 7 3.44087 7 3.6V4.2H6.2764C5.67295 4.20095 5.0945 4.44109 4.66779 4.86779C4.24109 5.2945 4.00095 5.87295 4 6.4764V18.7236C4.00095 19.327 4.24109 19.9055 4.66779 20.3322C5.0945 20.7589 5.67295 20.999 6.2764 21H18.5236C19.127 20.999 19.7055 20.7589 20.1322 20.3322C20.5589 19.9055 20.799 19.327 20.8 18.7236V6.4764C20.799 5.87295 20.5589 5.2945 20.1322 4.86779C19.7055 4.44109 19.127 4.20095 18.5236 4.2ZM19.6 18.7236C19.5991 19.0088 19.4853 19.282 19.2837 19.4837C19.082 19.6853 18.8088 19.7991 18.5236 19.8H6.2764C5.99121 19.7991 5.71798 19.6853 5.51632 19.4837C5.31466 19.282 5.20095 19.0088 5.2 18.7236V6.4764C5.20095 6.19121 5.31466 5.91798 5.51632 5.71632C5.71798 5.51466 5.99121 5.40095 6.2764 5.4H7V6C7 6.15913 7.06321 6.31174 7.17574 6.42426C7.28826 6.53679 7.44087 6.6 7.6 6.6C7.75913 6.6 7.91174 6.53679 8.02426 6.42426C8.13679 6.31174 8.2 6.15913 8.2 6V5.4H11.8V6C11.8 6.15913 11.8632 6.31174 11.9757 6.42426C12.0883 6.53679 12.2409 6.6 12.4 6.6C12.5591 6.6 12.7117 6.53679 12.8243 6.42426C12.9368 6.31174 13 6.15913 13 6V5.4H16.6V6C16.6 6.15913 16.6632 6.31174 16.7757 6.42426C16.8883 6.53679 17.0409 6.6 17.2 6.6C17.3591 6.6 17.5117 6.53679 17.6243 6.42426C17.7368 6.31174 17.8 6.15913 17.8 6V5.4H18.5236C18.8088 5.40095 19.082 5.51466 19.2837 5.71632C19.4853 5.91798 19.5991 6.19121 19.6 6.4764V18.7236Z" fill="white"/>
<path d="M10.1758 9.17581L8.80005 10.5516L8.02425 9.77581C7.9689 9.71851 7.90269 9.6728 7.82949 9.64135C7.75629 9.60991 7.67756 9.59335 7.59789 9.59266C7.51822 9.59197 7.43921 9.60715 7.36548 9.63732C7.29174 9.66749 7.22475 9.71204 7.16841 9.76838C7.11208 9.82471 7.06752 9.8917 7.03736 9.96544C7.00719 10.0392 6.99201 10.1182 6.9927 10.1979C6.99339 10.2775 7.00994 10.3563 7.04139 10.4295C7.07283 10.5027 7.11854 10.5689 7.17585 10.6242L8.37585 11.8242C8.48837 11.9367 8.64095 11.9999 8.80005 11.9999C8.95915 11.9999 9.11173 11.9367 9.22425 11.8242L11.0242 10.0242C11.1335 9.91105 11.194 9.75949 11.1927 9.60217C11.1913 9.44485 11.1282 9.29437 11.0169 9.18312C10.9057 9.07188 10.7552 9.00877 10.5979 9.00741C10.4406 9.00604 10.289 9.06652 10.1758 9.17581Z" fill="white"/>
<path d="M17.1999 10.2H12.9999C12.8408 10.2 12.6882 10.2632 12.5756 10.3757C12.4631 10.4883 12.3999 10.6409 12.3999 10.8C12.3999 10.9591 12.4631 11.1118 12.5756 11.2243C12.6882 11.3368 12.8408 11.4 12.9999 11.4H17.1999C17.359 11.4 17.5116 11.3368 17.6242 11.2243C17.7367 11.1118 17.7999 10.9591 17.7999 10.8C17.7999 10.6409 17.7367 10.4883 17.6242 10.3757C17.5116 10.2632 17.359 10.2 17.1999 10.2Z" fill="white"/>
<path d="M10.1758 14.5758L8.80005 15.9516L8.02425 15.1758C7.9689 15.1185 7.90269 15.0728 7.82949 15.0413C7.75629 15.0099 7.67756 14.9933 7.59789 14.9927C7.51822 14.992 7.43921 15.0071 7.36548 15.0373C7.29174 15.0675 7.22475 15.112 7.16841 15.1684C7.11208 15.2247 7.06752 15.2917 7.03736 15.3654C7.00719 15.4392 6.99201 15.5182 6.9927 15.5978C6.99339 15.6775 7.00994 15.7562 7.04139 15.8294C7.07283 15.9027 7.11854 15.9689 7.17585 16.0242L8.37585 17.2242C8.48837 17.3367 8.64095 17.3999 8.80005 17.3999C8.95915 17.3999 9.11173 17.3367 9.22425 17.2242L11.0242 15.4242C11.1335 15.311 11.194 15.1595 11.1927 15.0022C11.1913 14.8448 11.1282 14.6944 11.0169 14.5831C10.9057 14.4719 10.7552 14.4088 10.5979 14.4074C10.4406 14.406 10.289 14.4665 10.1758 14.5758Z" fill="white"/>
<path d="M17.1999 15.6H12.9999C12.8408 15.6 12.6882 15.6632 12.5756 15.7757C12.4631 15.8883 12.3999 16.0409 12.3999 16.2C12.3999 16.3591 12.4631 16.5117 12.5756 16.6243C12.6882 16.7368 12.8408 16.8 12.9999 16.8H17.1999C17.359 16.8 17.5116 16.7368 17.6242 16.6243C17.7367 16.5117 17.7999 16.3591 17.7999 16.2C17.7999 16.0409 17.7367 15.8883 17.6242 15.7757C17.5116 15.6632 17.359 15.6 17.1999 15.6Z" fill="white"/>
</svg>
